<?xml version="1.0" encoding="UTF-8"?>
<svg xmlns="http://www.w3.org/2000/svg" viewBox="0 0 1163 536" width="1163" height="536" font-family='"Inter","SF Pro Text",-apple-system,BlinkMacSystemFont,"Segoe UI",Roboto,sans-serif'>
<defs><linearGradient id="card-sheen" x1="0" y1="0" x2="0" y2="1"><stop offset="0" stop-color="#44475a" stop-opacity="0.55" /><stop offset="1" stop-color="#282a36" stop-opacity="0" /></linearGradient><filter id="shadow" x="-20%" y="-20%" width="140%" height="160%"><feDropShadow dx="0" dy="3" stdDeviation="4" flood-color="#000000" flood-opacity="0.45" /></filter><filter id="glow" x="-50%" y="-50%" width="200%" height="200%"><feDropShadow dx="0" dy="0" stdDeviation="6" flood-color="#f1fa8c" flood-opacity="0.55" /><feDropShadow dx="0" dy="3" stdDeviation="4" flood-color="#000000" flood-opacity="0.45" /></filter></defs>
<text x="56" y="80" font-size="20" font-weight="700" fill="#f8f8f2" letter-spacing="-0.4">Implementation Workflow</text>
<text x="56" y="102" font-size="11" font-weight="600" fill="#ff79c6" letter-spacing="1.4">BEHAVIOUR TREE</text>
<path d="M 581.5 184 C 581.5 226, 145 226, 145 268" fill="none" stroke="rgba(98,114,164,0.45)" stroke-width="1.5" stroke-linecap="round" />
<path d="M 581.5 184 C 581.5 226, 446 226, 446 268" fill="none" stroke="rgba(98,114,164,0.45)" stroke-width="1.5" stroke-linecap="round" />
<path d="M 446 332 C 446 374, 363 374, 363 416" fill="none" stroke="rgba(98,114,164,0.45)" stroke-width="1.5" stroke-linecap="round" />
<path d="M 446 332 C 446 374, 555 374, 555 416" fill="none" stroke="rgba(98,114,164,0.45)" stroke-width="1.5" stroke-linecap="round" />
<path d="M 581.5 184 C 581.5 226, 882.5 226, 882.5 268" fill="none" stroke="rgba(98,114,164,0.45)" stroke-width="1.5" stroke-linecap="round" />
<path d="M 882.5 332 C 882.5 374, 799.5 374, 799.5 416" fill="none" stroke="rgba(98,114,164,0.45)" stroke-width="1.5" stroke-linecap="round" />
<path d="M 882.5 332 C 882.5 374, 1044 374, 1044 416" fill="none" stroke="rgba(98,114,164,0.45)" stroke-width="1.5" stroke-linecap="round" />
<g filter="url(#shadow)"><rect x="56" y="268" width="178" height="64" rx="12" fill="#282a36" /><rect x="56" y="268" width="178" height="64" rx="12" fill="url(#card-sheen)" opacity="0.55" /><rect x="56" y="268" width="178" height="64" rx="12" fill="none" stroke="rgba(98,114,164,0.32)" stroke-width="1" /><rect x="66" y="282" width="3" height="36" rx="1.5" fill="#8be9fd" /><text x="78" y="295" font-size="14" font-weight="600" fill="#f8f8f2" letter-spacing="-0.1">Score Complexity</text><text x="78" y="315" font-size="10" font-weight="600" fill="#6272a4" letter-spacing="1.2">ACTION</text></g>
<g filter="url(#shadow)"><rect x="274" y="416" width="178" height="64" rx="12" fill="#282a36" /><rect x="274" y="416" width="178" height="64" rx="12" fill="url(#card-sheen)" opacity="0.55" /><rect x="274" y="416" width="178" height="64" rx="12" fill="none" stroke="rgba(98,114,164,0.32)" stroke-width="1" /><rect x="284" y="430" width="3" height="36" rx="1.5" fill="#8be9fd" /><text x="296" y="443" font-size="14" font-weight="600" fill="#f8f8f2" letter-spacing="-0.1">Escalate To Opus</text><text x="296" y="463" font-size="10" font-weight="600" fill="#6272a4" letter-spacing="1.2">ACTION</text></g>
<g filter="url(#shadow)"><rect x="492" y="416" width="126" height="64" rx="12" fill="#282a36" /><rect x="492" y="416" width="126" height="64" rx="12" fill="url(#card-sheen)" opacity="0.55" /><rect x="492" y="416" width="126" height="64" rx="12" fill="none" stroke="rgba(98,114,164,0.32)" stroke-width="1" /><rect x="502" y="430" width="3" height="36" rx="1.5" fill="#8be9fd" /><text x="514" y="443" font-size="14" font-weight="600" fill="#f8f8f2" letter-spacing="-0.1">Skip Opus</text><text x="514" y="463" font-size="10" font-weight="600" fill="#6272a4" letter-spacing="1.2">ACTION</text></g>
<g filter="url(#shadow)"><rect x="342" y="268" width="208" height="64" rx="12" fill="#282a36" /><rect x="342" y="268" width="208" height="64" rx="12" fill="url(#card-sheen)" opacity="0.55" /><rect x="342" y="268" width="208" height="64" rx="12" fill="none" stroke="rgba(98,114,164,0.32)" stroke-width="1" /><rect x="352" y="282" width="3" height="36" rx="1.5" fill="#bd93f9" /><text x="364" y="295" font-size="14" font-weight="600" fill="#f8f8f2" letter-spacing="-0.1">Architectural Review</text><text x="364" y="315" font-size="10" font-weight="600" fill="#6272a4" letter-spacing="1.2">SELECTOR</text></g>
<g filter="url(#shadow)"><rect x="658" y="416" width="283" height="64" rx="12" fill="#282a36" /><rect x="658" y="416" width="283" height="64" rx="12" fill="url(#card-sheen)" opacity="0.55" /><rect x="658" y="416" width="283" height="64" rx="12" fill="none" stroke="rgba(98,114,164,0.32)" stroke-width="1" /><rect x="668" y="430" width="3" height="36" rx="1.5" fill="#8be9fd" /><text x="680" y="443" font-size="14" font-weight="600" fill="#f8f8f2" letter-spacing="-0.1">Ensure Plan And Review Are Set</text><text x="680" y="463" font-size="10" font-weight="600" fill="#6272a4" letter-spacing="1.2">ACTION</text></g>
<g filter="url(#shadow)"><rect x="981" y="416" width="126" height="64" rx="12" fill="#282a36" /><rect x="981" y="416" width="126" height="64" rx="12" fill="url(#card-sheen)" opacity="0.55" /><rect x="981" y="416" width="126" height="64" rx="12" fill="none" stroke="rgba(98,114,164,0.32)" stroke-width="1" /><rect x="991" y="430" width="3" height="36" rx="1.5" fill="#8be9fd" /><text x="1003" y="443" font-size="14" font-weight="600" fill="#f8f8f2" letter-spacing="-0.1">Implement</text><text x="1003" y="463" font-size="10" font-weight="600" fill="#6272a4" letter-spacing="1.2">ACTION</text></g>
<g filter="url(#shadow)"><rect x="816" y="268" width="133" height="64" rx="12" fill="#282a36" /><rect x="816" y="268" width="133" height="64" rx="12" fill="url(#card-sheen)" opacity="0.55" /><rect x="816" y="268" width="133" height="64" rx="12" fill="none" stroke="rgba(98,114,164,0.32)" stroke-width="1" /><rect x="826" y="282" width="3" height="36" rx="1.5" fill="#50fa7b" /><text x="838" y="295" font-size="14" font-weight="600" fill="#f8f8f2" letter-spacing="-0.1">Apply Plan</text><text x="838" y="315" font-size="10" font-weight="600" fill="#6272a4" letter-spacing="1.2">SEQUENCE</text></g>
<g filter="url(#shadow)"><rect x="466" y="120" width="231" height="64" rx="12" fill="#282a36" /><rect x="466" y="120" width="231" height="64" rx="12" fill="url(#card-sheen)" opacity="0.55" /><rect x="466" y="120" width="231" height="64" rx="12" fill="none" stroke="rgba(98,114,164,0.32)" stroke-width="1" /><rect x="476" y="134" width="3" height="36" rx="1.5" fill="#50fa7b" /><text x="488" y="147" font-size="14" font-weight="600" fill="#f8f8f2" letter-spacing="-0.1">Implementation Workflow</text><text x="488" y="167" font-size="10" font-weight="600" fill="#6272a4" letter-spacing="1.2">SEQUENCE</text></g>
</svg>
