<?xml version="1.0" encoding="UTF-8"?>
<svg xmlns="http://www.w3.org/2000/svg" viewBox="0 0 5077 832" width="5077" height="832" font-family='"Inter","SF Pro Text",-apple-system,BlinkMacSystemFont,"Segoe UI",Roboto,sans-serif'>
<defs><linearGradient id="card-sheen" x1="0" y1="0" x2="0" y2="1"><stop offset="0" stop-color="#44475a" stop-opacity="0.55" /><stop offset="1" stop-color="#282a36" stop-opacity="0" /></linearGradient><filter id="shadow" x="-20%" y="-20%" width="140%" height="160%"><feDropShadow dx="0" dy="3" stdDeviation="4" flood-color="#000000" flood-opacity="0.45" /></filter><filter id="glow" x="-50%" y="-50%" width="200%" height="200%"><feDropShadow dx="0" dy="0" stdDeviation="6" flood-color="#f1fa8c" flood-opacity="0.55" /><feDropShadow dx="0" dy="3" stdDeviation="4" flood-color="#000000" flood-opacity="0.45" /></filter></defs>
<text x="56" y="80" font-size="20" font-weight="700" fill="#f8f8f2" letter-spacing="-0.4">Improve Codebase</text>
<text x="56" y="102" font-size="11" font-weight="600" fill="#ff79c6" letter-spacing="1.4">BEHAVIOUR TREE</text>
<path d="M 2538.5 184 C 2538.5 226, 130 226, 130 268" fill="none" stroke="rgba(98,114,164,0.45)" stroke-width="1.5" stroke-linecap="round" />
<path d="M 2538.5 184 C 2538.5 226, 329.5 226, 329.5 268" fill="none" stroke="rgba(98,114,164,0.45)" stroke-width="1.5" stroke-linecap="round" />
<path d="M 2538.5 184 C 2538.5 226, 804 226, 804 268" fill="none" stroke="rgba(98,114,164,0.45)" stroke-width="1.5" stroke-linecap="round" />
<path d="M 804 332 C 804 374, 518 374, 518 416" fill="none" stroke="rgba(98,114,164,0.45)" stroke-width="1.5" stroke-linecap="round" />
<path d="M 804 332 C 804 374, 684 374, 684 416" fill="none" stroke="rgba(98,114,164,0.45)" stroke-width="1.5" stroke-linecap="round" />
<path d="M 804 332 C 804 374, 868.5 374, 868.5 416" fill="none" stroke="rgba(98,114,164,0.45)" stroke-width="1.5" stroke-linecap="round" />
<path d="M 804 332 C 804 374, 1071.5 374, 1071.5 416" fill="none" stroke="rgba(98,114,164,0.45)" stroke-width="1.5" stroke-linecap="round" />
<path d="M 2538.5 184 C 2538.5 226, 1286 226, 1286 268" fill="none" stroke="rgba(98,114,164,0.45)" stroke-width="1.5" stroke-linecap="round" />
<path d="M 2538.5 184 C 2538.5 226, 1500.5 226, 1500.5 268" fill="none" stroke="rgba(98,114,164,0.45)" stroke-width="1.5" stroke-linecap="round" />
<path d="M 2538.5 184 C 2538.5 226, 1715 226, 1715 268" fill="none" stroke="rgba(98,114,164,0.45)" stroke-width="1.5" stroke-linecap="round" />
<path d="M 2538.5 184 C 2538.5 226, 1926 226, 1926 268" fill="none" stroke="rgba(98,114,164,0.45)" stroke-width="1.5" stroke-linecap="round" />
<path d="M 2538.5 184 C 2538.5 226, 2152 226, 2152 268" fill="none" stroke="rgba(98,114,164,0.45)" stroke-width="1.5" stroke-linecap="round" />
<path d="M 2538.5 184 C 2538.5 226, 2404 226, 2404 268" fill="none" stroke="rgba(98,114,164,0.45)" stroke-width="1.5" stroke-linecap="round" />
<path d="M 2538.5 184 C 2538.5 226, 3476 226, 3476 268" fill="none" stroke="rgba(98,114,164,0.45)" stroke-width="1.5" stroke-linecap="round" />
<path d="M 3476 332 C 3476 374, 2614.5 374, 2614.5 416" fill="none" stroke="rgba(98,114,164,0.45)" stroke-width="1.5" stroke-linecap="round" />
<path d="M 3476 332 C 3476 374, 2802.5 374, 2802.5 416" fill="none" stroke="rgba(98,114,164,0.45)" stroke-width="1.5" stroke-linecap="round" />
<path d="M 3476 332 C 3476 374, 3446 374, 3446 416" fill="none" stroke="rgba(98,114,164,0.45)" stroke-width="1.5" stroke-linecap="round" />
<path d="M 3446 480 C 3446 522, 3118.5 522, 3118.5 564" fill="none" stroke="rgba(98,114,164,0.45)" stroke-width="1.5" stroke-linecap="round" />
<path d="M 3118.5 628 C 3118.5 670, 3020.5 670, 3020.5 712" fill="none" stroke="rgba(98,114,164,0.45)" stroke-width="1.5" stroke-linecap="round" />
<path d="M 3118.5 628 C 3118.5 670, 3235 670, 3235 712" fill="none" stroke="rgba(98,114,164,0.45)" stroke-width="1.5" stroke-linecap="round" />
<path d="M 3446 480 C 3446 522, 3449.5 522, 3449.5 564" fill="none" stroke="rgba(98,114,164,0.45)" stroke-width="1.5" stroke-linecap="round" />
<path d="M 3446 480 C 3446 522, 3671.5 522, 3671.5 564" fill="none" stroke="rgba(98,114,164,0.45)" stroke-width="1.5" stroke-linecap="round" />
<path d="M 3446 480 C 3446 522, 3882.5 522, 3882.5 564" fill="none" stroke="rgba(98,114,164,0.45)" stroke-width="1.5" stroke-linecap="round" />
<path d="M 3476 332 C 3476 374, 4097 374, 4097 416" fill="none" stroke="rgba(98,114,164,0.45)" stroke-width="1.5" stroke-linecap="round" />
<path d="M 3476 332 C 3476 374, 4315 374, 4315 416" fill="none" stroke="rgba(98,114,164,0.45)" stroke-width="1.5" stroke-linecap="round" />
<path d="M 2538.5 184 C 2538.5 226, 4540.5 226, 4540.5 268" fill="none" stroke="rgba(98,114,164,0.45)" stroke-width="1.5" stroke-linecap="round" />
<path d="M 2538.5 184 C 2538.5 226, 4849 226, 4849 268" fill="none" stroke="rgba(98,114,164,0.45)" stroke-width="1.5" stroke-linecap="round" />
<path d="M 4849 332 C 4849 374, 4751 374, 4751 416" fill="none" stroke="rgba(98,114,164,0.45)" stroke-width="1.5" stroke-linecap="round" />
<path d="M 4849 332 C 4849 374, 4943 374, 4943 416" fill="none" stroke="rgba(98,114,164,0.45)" stroke-width="1.5" stroke-linecap="round" />
<g filter="url(#shadow)"><rect x="56" y="268" width="148" height="64" rx="12" fill="#282a36" /><rect x="56" y="268" width="148" height="64" rx="12" fill="url(#card-sheen)" opacity="0.55" /><rect x="56" y="268" width="148" height="64" rx="12" fill="none" stroke="rgba(98,114,164,0.32)" stroke-width="1" /><rect x="66" y="282" width="3" height="36" rx="1.5" fill="#8be9fd" /><text x="78" y="295" font-size="14" font-weight="600" fill="#f8f8f2" letter-spacing="-0.1">Check Intent</text><text x="78" y="315" font-size="10" font-weight="600" fill="#6272a4" letter-spacing="1.2">ACTION</text></g>
<g filter="url(#shadow)"><rect x="244" y="268" width="171" height="64" rx="12" fill="#282a36" /><rect x="244" y="268" width="171" height="64" rx="12" fill="url(#card-sheen)" opacity="0.55" /><rect x="244" y="268" width="171" height="64" rx="12" fill="none" stroke="rgba(98,114,164,0.32)" stroke-width="1" /><rect x="254" y="282" width="3" height="36" rx="1.5" fill="#8be9fd" /><text x="266" y="295" font-size="14" font-weight="600" fill="#f8f8f2" letter-spacing="-0.1">Verify Baseline</text><text x="266" y="315" font-size="10" font-weight="600" fill="#6272a4" letter-spacing="1.2">ACTION</text></g>
<g filter="url(#shadow)"><rect x="455" y="416" width="126" height="64" rx="12" fill="#282a36" /><rect x="455" y="416" width="126" height="64" rx="12" fill="url(#card-sheen)" opacity="0.55" /><rect x="455" y="416" width="126" height="64" rx="12" fill="none" stroke="rgba(98,114,164,0.32)" stroke-width="1" /><rect x="465" y="430" width="3" height="36" rx="1.5" fill="#8be9fd" /><text x="477" y="443" font-size="14" font-weight="600" fill="#f8f8f2" letter-spacing="-0.1">Score DRY</text><text x="477" y="463" font-size="10" font-weight="600" fill="#6272a4" letter-spacing="1.2">ACTION</text></g>
<g filter="url(#shadow)"><rect x="621" y="416" width="126" height="64" rx="12" fill="#282a36" /><rect x="621" y="416" width="126" height="64" rx="12" fill="url(#card-sheen)" opacity="0.55" /><rect x="621" y="416" width="126" height="64" rx="12" fill="none" stroke="rgba(98,114,164,0.32)" stroke-width="1" /><rect x="631" y="430" width="3" height="36" rx="1.5" fill="#8be9fd" /><text x="643" y="443" font-size="14" font-weight="600" fill="#f8f8f2" letter-spacing="-0.1">Score SRP</text><text x="643" y="463" font-size="10" font-weight="600" fill="#6272a4" letter-spacing="1.2">ACTION</text></g>
<g filter="url(#shadow)"><rect x="787" y="416" width="163" height="64" rx="12" fill="#282a36" /><rect x="787" y="416" width="163" height="64" rx="12" fill="url(#card-sheen)" opacity="0.55" /><rect x="787" y="416" width="163" height="64" rx="12" fill="none" stroke="rgba(98,114,164,0.32)" stroke-width="1" /><rect x="797" y="430" width="3" height="36" rx="1.5" fill="#8be9fd" /><text x="809" y="443" font-size="14" font-weight="600" fill="#f8f8f2" letter-spacing="-0.1">Score Coupling</text><text x="809" y="463" font-size="10" font-weight="600" fill="#6272a4" letter-spacing="1.2">ACTION</text></g>
<g filter="url(#shadow)"><rect x="990" y="416" width="163" height="64" rx="12" fill="#282a36" /><rect x="990" y="416" width="163" height="64" rx="12" fill="url(#card-sheen)" opacity="0.55" /><rect x="990" y="416" width="163" height="64" rx="12" fill="none" stroke="rgba(98,114,164,0.32)" stroke-width="1" /><rect x="1000" y="430" width="3" height="36" rx="1.5" fill="#8be9fd" /><text x="1012" y="443" font-size="14" font-weight="600" fill="#f8f8f2" letter-spacing="-0.1">Score Cohesion</text><text x="1012" y="463" font-size="10" font-weight="600" fill="#6272a4" letter-spacing="1.2">ACTION</text></g>
<g filter="url(#shadow)"><rect x="696" y="268" width="216" height="64" rx="12" fill="#282a36" /><rect x="696" y="268" width="216" height="64" rx="12" fill="url(#card-sheen)" opacity="0.55" /><rect x="696" y="268" width="216" height="64" rx="12" fill="none" stroke="rgba(98,114,164,0.32)" stroke-width="1" /><rect x="706" y="282" width="3" height="36" rx="1.5" fill="#ffb86c" /><text x="718" y="295" font-size="14" font-weight="600" fill="#f8f8f2" letter-spacing="-0.1">Score Quality Metrics</text><text x="718" y="315" font-size="10" font-weight="600" fill="#6272a4" letter-spacing="1.2">PARALLEL</text></g>
<g filter="url(#shadow)"><rect x="1193" y="268" width="186" height="64" rx="12" fill="#282a36" /><rect x="1193" y="268" width="186" height="64" rx="12" fill="url(#card-sheen)" opacity="0.55" /><rect x="1193" y="268" width="186" height="64" rx="12" fill="none" stroke="rgba(98,114,164,0.32)" stroke-width="1" /><rect x="1203" y="282" width="3" height="36" rx="1.5" fill="#8be9fd" /><text x="1215" y="295" font-size="14" font-weight="600" fill="#f8f8f2" letter-spacing="-0.1">Snapshot Baseline</text><text x="1215" y="315" font-size="10" font-weight="600" fill="#6272a4" letter-spacing="1.2">ACTION</text></g>
<g filter="url(#shadow)"><rect x="1419" y="268" width="163" height="64" rx="12" fill="#282a36" /><rect x="1419" y="268" width="163" height="64" rx="12" fill="url(#card-sheen)" opacity="0.55" /><rect x="1419" y="268" width="163" height="64" rx="12" fill="none" stroke="rgba(98,114,164,0.32)" stroke-width="1" /><rect x="1429" y="282" width="3" height="36" rx="1.5" fill="#8be9fd" /><text x="1441" y="295" font-size="14" font-weight="600" fill="#f8f8f2" letter-spacing="-0.1">Compile Report</text><text x="1441" y="315" font-size="10" font-weight="600" fill="#6272a4" letter-spacing="1.2">ACTION</text></g>
<g filter="url(#shadow)"><rect x="1622" y="268" width="186" height="64" rx="12" fill="#282a36" /><rect x="1622" y="268" width="186" height="64" rx="12" fill="url(#card-sheen)" opacity="0.55" /><rect x="1622" y="268" width="186" height="64" rx="12" fill="none" stroke="rgba(98,114,164,0.32)" stroke-width="1" /><rect x="1632" y="282" width="3" height="36" rx="1.5" fill="#8be9fd" /><text x="1644" y="295" font-size="14" font-weight="600" fill="#f8f8f2" letter-spacing="-0.1">Critique Findings</text><text x="1644" y="315" font-size="10" font-weight="600" fill="#6272a4" letter-spacing="1.2">ACTION</text></g>
<g filter="url(#shadow)"><rect x="1848" y="268" width="156" height="64" rx="12" fill="#282a36" /><rect x="1848" y="268" width="156" height="64" rx="12" fill="url(#card-sheen)" opacity="0.55" /><rect x="1848" y="268" width="156" height="64" rx="12" fill="none" stroke="rgba(98,114,164,0.32)" stroke-width="1" /><rect x="1858" y="282" width="3" height="36" rx="1.5" fill="#8be9fd" /><text x="1870" y="295" font-size="14" font-weight="600" fill="#f8f8f2" letter-spacing="-0.1">Lookup Online</text><text x="1870" y="315" font-size="10" font-weight="600" fill="#6272a4" letter-spacing="1.2">ACTION</text></g>
<g filter="url(#shadow)"><rect x="2044" y="268" width="216" height="64" rx="12" fill="#282a36" /><rect x="2044" y="268" width="216" height="64" rx="12" fill="url(#card-sheen)" opacity="0.55" /><rect x="2044" y="268" width="216" height="64" rx="12" fill="none" stroke="rgba(98,114,164,0.32)" stroke-width="1" /><rect x="2054" y="282" width="3" height="36" rx="1.5" fill="#8be9fd" /><text x="2066" y="295" font-size="14" font-weight="600" fill="#f8f8f2" letter-spacing="-0.1">Triage Refactor Queue</text><text x="2066" y="315" font-size="10" font-weight="600" fill="#6272a4" letter-spacing="1.2">ACTION</text></g>
<g filter="url(#shadow)"><rect x="2300" y="268" width="208" height="64" rx="12" fill="#282a36" /><rect x="2300" y="268" width="208" height="64" rx="12" fill="url(#card-sheen)" opacity="0.55" /><rect x="2300" y="268" width="208" height="64" rx="12" fill="none" stroke="rgba(98,114,164,0.32)" stroke-width="1" /><rect x="2310" y="282" width="3" height="36" rx="1.5" fill="#8be9fd" /><text x="2322" y="295" font-size="14" font-weight="600" fill="#f8f8f2" letter-spacing="-0.1">Triage Approval Gate</text><text x="2322" y="315" font-size="10" font-weight="600" fill="#6272a4" letter-spacing="1.2">ACTION</text></g>
<g filter="url(#shadow)"><rect x="2548" y="416" width="133" height="64" rx="12" fill="#282a36" /><rect x="2548" y="416" width="133" height="64" rx="12" fill="url(#card-sheen)" opacity="0.55" /><rect x="2548" y="416" width="133" height="64" rx="12" fill="none" stroke="rgba(98,114,164,0.32)" stroke-width="1" /><rect x="2558" y="430" width="3" height="36" rx="1.5" fill="#8be9fd" /><text x="2570" y="443" font-size="14" font-weight="600" fill="#f8f8f2" letter-spacing="-0.1">Halt Check</text><text x="2570" y="463" font-size="10" font-weight="600" fill="#6272a4" letter-spacing="1.2">ACTION</text></g>
<g filter="url(#shadow)"><rect x="2721" y="416" width="163" height="64" rx="12" fill="#282a36" /><rect x="2721" y="416" width="163" height="64" rx="12" fill="url(#card-sheen)" opacity="0.55" /><rect x="2721" y="416" width="163" height="64" rx="12" fill="none" stroke="rgba(98,114,164,0.32)" stroke-width="1" /><rect x="2731" y="430" width="3" height="36" rx="1.5" fill="#8be9fd" /><text x="2743" y="443" font-size="14" font-weight="600" fill="#f8f8f2" letter-spacing="-0.1">Pick Next Item</text><text x="2743" y="463" font-size="10" font-weight="600" fill="#6272a4" letter-spacing="1.2">ACTION</text></g>
<g filter="url(#shadow)"><rect x="2924" y="712" width="193" height="64" rx="12" fill="#282a36" /><rect x="2924" y="712" width="193" height="64" rx="12" fill="url(#card-sheen)" opacity="0.55" /><rect x="2924" y="712" width="193" height="64" rx="12" fill="none" stroke="rgba(98,114,164,0.32)" stroke-width="1" /><rect x="2934" y="726" width="3" height="36" rx="1.5" fill="#8be9fd" /><text x="2946" y="739" font-size="14" font-weight="600" fill="#f8f8f2" letter-spacing="-0.1">High Risk Critique</text><text x="2946" y="759" font-size="10" font-weight="600" fill="#6272a4" letter-spacing="1.2">ACTION</text></g>
<g filter="url(#shadow)"><rect x="3157" y="712" width="156" height="64" rx="12" fill="#282a36" /><rect x="3157" y="712" width="156" height="64" rx="12" fill="url(#card-sheen)" opacity="0.55" /><rect x="3157" y="712" width="156" height="64" rx="12" fill="none" stroke="rgba(98,114,164,0.32)" stroke-width="1" /><rect x="3167" y="726" width="3" height="36" rx="1.5" fill="#8be9fd" /><text x="3179" y="739" font-size="14" font-weight="600" fill="#f8f8f2" letter-spacing="-0.1">Skip Critique</text><text x="3179" y="759" font-size="10" font-weight="600" fill="#6272a4" letter-spacing="1.2">ACTION</text></g>
<g filter="url(#shadow)"><rect x="3010.5" y="564" width="216" height="64" rx="12" fill="#282a36" /><rect x="3010.5" y="564" width="216" height="64" rx="12" fill="url(#card-sheen)" opacity="0.55" /><rect x="3010.5" y="564" width="216" height="64" rx="12" fill="none" stroke="rgba(98,114,164,0.32)" stroke-width="1" /><rect x="3020.5" y="578" width="3" height="36" rx="1.5" fill="#bd93f9" /><text x="3032.5" y="591" font-size="14" font-weight="600" fill="#f8f8f2" letter-spacing="-0.1">Pre Refactor Critique</text><text x="3032.5" y="611" font-size="10" font-weight="600" fill="#6272a4" letter-spacing="1.2">SELECTOR</text></g>
<g filter="url(#shadow)"><rect x="3353" y="564" width="193" height="64" rx="12" fill="#282a36" /><rect x="3353" y="564" width="193" height="64" rx="12" fill="url(#card-sheen)" opacity="0.55" /><rect x="3353" y="564" width="193" height="64" rx="12" fill="none" stroke="rgba(98,114,164,0.32)" stroke-width="1" /><rect x="3363" y="578" width="3" height="36" rx="1.5" fill="#8be9fd" /><text x="3375" y="591" font-size="14" font-weight="600" fill="#f8f8f2" letter-spacing="-0.1">Implement Refactor</text><text x="3375" y="611" font-size="10" font-weight="600" fill="#6272a4" letter-spacing="1.2">ACTION</text></g>
<g filter="url(#shadow)"><rect x="3586" y="564" width="171" height="64" rx="12" fill="#282a36" /><rect x="3586" y="564" width="171" height="64" rx="12" fill="url(#card-sheen)" opacity="0.55" /><rect x="3586" y="564" width="171" height="64" rx="12" fill="none" stroke="rgba(98,114,164,0.32)" stroke-width="1" /><rect x="3596" y="578" width="3" height="36" rx="1.5" fill="#8be9fd" /><text x="3608" y="591" font-size="14" font-weight="600" fill="#f8f8f2" letter-spacing="-0.1">Regression Test</text><text x="3608" y="611" font-size="10" font-weight="600" fill="#6272a4" letter-spacing="1.2">ACTION</text></g>
<g filter="url(#shadow)"><rect x="3797" y="564" width="171" height="64" rx="12" fill="#282a36" /><rect x="3797" y="564" width="171" height="64" rx="12" fill="url(#card-sheen)" opacity="0.55" /><rect x="3797" y="564" width="171" height="64" rx="12" fill="none" stroke="rgba(98,114,164,0.32)" stroke-width="1" /><rect x="3807" y="578" width="3" height="36" rx="1.5" fill="#8be9fd" /><text x="3819" y="591" font-size="14" font-weight="600" fill="#f8f8f2" letter-spacing="-0.1">Reassess Metric</text><text x="3819" y="611" font-size="10" font-weight="600" fill="#6272a4" letter-spacing="1.2">ACTION</text></g>
<g filter="url(#shadow)"><rect x="3368" y="416" width="156" height="64" rx="12" fill="#282a36" /><rect x="3368" y="416" width="156" height="64" rx="12" fill="url(#card-sheen)" opacity="0.55" /><rect x="3368" y="416" width="156" height="64" rx="12" fill="none" stroke="rgba(98,114,164,0.32)" stroke-width="1" /><rect x="3378" y="430" width="3" height="36" rx="1.5" fill="#50fa7b" /><text x="3390" y="443" font-size="14" font-weight="600" fill="#f8f8f2" letter-spacing="-0.1">Refactor Item</text><text x="3390" y="463" font-size="10" font-weight="600" fill="#6272a4" letter-spacing="1.2">SEQUENCE</text></g>
<g filter="url(#shadow)"><rect x="4008" y="416" width="178" height="64" rx="12" fill="#282a36" /><rect x="4008" y="416" width="178" height="64" rx="12" fill="url(#card-sheen)" opacity="0.55" /><rect x="4008" y="416" width="178" height="64" rx="12" fill="none" stroke="rgba(98,114,164,0.32)" stroke-width="1" /><rect x="4018" y="430" width="3" height="36" rx="1.5" fill="#8be9fd" /><text x="4030" y="443" font-size="14" font-weight="600" fill="#f8f8f2" letter-spacing="-0.1">Record Item Done</text><text x="4030" y="463" font-size="10" font-weight="600" fill="#6272a4" letter-spacing="1.2">ACTION</text></g>
<g filter="url(#shadow)"><rect x="4226" y="416" width="178" height="64" rx="12" fill="#282a36" /><rect x="4226" y="416" width="178" height="64" rx="12" fill="url(#card-sheen)" opacity="0.55" /><rect x="4226" y="416" width="178" height="64" rx="12" fill="none" stroke="rgba(98,114,164,0.32)" stroke-width="1" /><rect x="4236" y="430" width="3" height="36" rx="1.5" fill="#8be9fd" /><text x="4248" y="443" font-size="14" font-weight="600" fill="#f8f8f2" letter-spacing="-0.1">Continue Or Done</text><text x="4248" y="463" font-size="10" font-weight="600" fill="#6272a4" letter-spacing="1.2">ACTION</text></g>
<g filter="url(#shadow)"><rect x="3379.5" y="268" width="193" height="64" rx="12" fill="#282a36" /><rect x="3379.5" y="268" width="193" height="64" rx="12" fill="url(#card-sheen)" opacity="0.55" /><rect x="3379.5" y="268" width="193" height="64" rx="12" fill="none" stroke="rgba(98,114,164,0.32)" stroke-width="1" /><rect x="3389.5" y="282" width="3" height="36" rx="1.5" fill="#50fa7b" /><text x="3401.5" y="295" font-size="14" font-weight="600" fill="#f8f8f2" letter-spacing="-0.1">Iterative Refactor</text><text x="3401.5" y="315" font-size="10" font-weight="600" fill="#6272a4" letter-spacing="1.2">SEQUENCE</text></g>
<g filter="url(#shadow)"><rect x="4444" y="268" width="193" height="64" rx="12" fill="#282a36" /><rect x="4444" y="268" width="193" height="64" rx="12" fill="url(#card-sheen)" opacity="0.55" /><rect x="4444" y="268" width="193" height="64" rx="12" fill="none" stroke="rgba(98,114,164,0.32)" stroke-width="1" /><rect x="4454" y="282" width="3" height="36" rx="1.5" fill="#8be9fd" /><text x="4466" y="295" font-size="14" font-weight="600" fill="#f8f8f2" letter-spacing="-0.1">Final Reassessment</text><text x="4466" y="315" font-size="10" font-weight="600" fill="#6272a4" letter-spacing="1.2">ACTION</text></g>
<g filter="url(#shadow)"><rect x="4677" y="416" width="148" height="64" rx="12" fill="#282a36" /><rect x="4677" y="416" width="148" height="64" rx="12" fill="url(#card-sheen)" opacity="0.55" /><rect x="4677" y="416" width="148" height="64" rx="12" fill="none" stroke="rgba(98,114,164,0.32)" stroke-width="1" /><rect x="4687" y="430" width="3" height="36" rx="1.5" fill="#8be9fd" /><text x="4699" y="443" font-size="14" font-weight="600" fill="#f8f8f2" letter-spacing="-0.1">Cycle Passed</text><text x="4699" y="463" font-size="10" font-weight="600" fill="#6272a4" letter-spacing="1.2">ACTION</text></g>
<g filter="url(#shadow)"><rect x="4865" y="416" width="156" height="64" rx="12" fill="#282a36" /><rect x="4865" y="416" width="156" height="64" rx="12" fill="url(#card-sheen)" opacity="0.55" /><rect x="4865" y="416" width="156" height="64" rx="12" fill="none" stroke="rgba(98,114,164,0.32)" stroke-width="1" /><rect x="4875" y="430" width="3" height="36" rx="1.5" fill="#8be9fd" /><text x="4887" y="443" font-size="14" font-weight="600" fill="#f8f8f2" letter-spacing="-0.1">Cycle Partial</text><text x="4887" y="463" font-size="10" font-weight="600" fill="#6272a4" letter-spacing="1.2">ACTION</text></g>
<g filter="url(#shadow)"><rect x="4771" y="268" width="156" height="64" rx="12" fill="#282a36" /><rect x="4771" y="268" width="156" height="64" rx="12" fill="url(#card-sheen)" opacity="0.55" /><rect x="4771" y="268" width="156" height="64" rx="12" fill="none" stroke="rgba(98,114,164,0.32)" stroke-width="1" /><rect x="4781" y="282" width="3" height="36" rx="1.5" fill="#bd93f9" /><text x="4793" y="295" font-size="14" font-weight="600" fill="#f8f8f2" letter-spacing="-0.1">Cycle Verdict</text><text x="4793" y="315" font-size="10" font-weight="600" fill="#6272a4" letter-spacing="1.2">SELECTOR</text></g>
<g filter="url(#shadow)"><rect x="2449.5" y="120" width="178" height="64" rx="12" fill="#282a36" /><rect x="2449.5" y="120" width="178" height="64" rx="12" fill="url(#card-sheen)" opacity="0.55" /><rect x="2449.5" y="120" width="178" height="64" rx="12" fill="none" stroke="rgba(98,114,164,0.32)" stroke-width="1" /><rect x="2459.5" y="134" width="3" height="36" rx="1.5" fill="#50fa7b" /><text x="2471.5" y="147" font-size="14" font-weight="600" fill="#f8f8f2" letter-spacing="-0.1">Improve Codebase</text><text x="2471.5" y="167" font-size="10" font-weight="600" fill="#6272a4" letter-spacing="1.2">SEQUENCE</text></g>
</svg>
