<?xml version="1.0" encoding="UTF-8"?>
<svg xmlns="http://www.w3.org/2000/svg" viewBox="0 0 1646 536" width="1646" height="536" font-family='"Inter","SF Pro Text",-apple-system,BlinkMacSystemFont,"Segoe UI",Roboto,sans-serif'>
<defs><linearGradient id="card-sheen" x1="0" y1="0" x2="0" y2="1"><stop offset="0" stop-color="#44475a" stop-opacity="0.55" /><stop offset="1" stop-color="#282a36" stop-opacity="0" /></linearGradient><filter id="shadow" x="-20%" y="-20%" width="140%" height="160%"><feDropShadow dx="0" dy="3" stdDeviation="4" flood-color="#000000" flood-opacity="0.45" /></filter><filter id="glow" x="-50%" y="-50%" width="200%" height="200%"><feDropShadow dx="0" dy="0" stdDeviation="6" flood-color="#f1fa8c" flood-opacity="0.55" /><feDropShadow dx="0" dy="3" stdDeviation="4" flood-color="#000000" flood-opacity="0.45" /></filter><filter id="ring-glow" x="-30%" y="-30%" width="160%" height="160%"><feDropShadow dx="0" dy="0" stdDeviation="8" flood-color="#ff79c6" flood-opacity="0.9" /><feDropShadow dx="0" dy="0" stdDeviation="3" flood-color="#ff79c6" flood-opacity="0.9" /></filter></defs>
<text x="56" y="80" font-size="20" font-weight="700" fill="#f8f8f2" letter-spacing="-0.4">Apply SRP refactor to packages/runtime (complete)</text>
<text x="56" y="102" font-size="11" font-weight="600" fill="#ff79c6" letter-spacing="1.4">BEHAVIOUR TREE</text>
<path d="M 823 184 C 823 226, 119 226, 119 268" fill="none" stroke="rgba(98,114,164,0.45)" stroke-width="1.5" stroke-linecap="round" />
<path d="M 823 184 C 823 226, 333.5 226, 333.5 268" fill="none" stroke="rgba(98,114,164,0.45)" stroke-width="1.5" stroke-linecap="round" />
<path d="M 823 184 C 823 226, 559 226, 559 268" fill="none" stroke="rgba(98,114,164,0.45)" stroke-width="1.5" stroke-linecap="round" />
<path d="M 823 184 C 823 226, 920.5 226, 920.5 268" fill="none" stroke="rgba(98,114,164,0.45)" stroke-width="1.5" stroke-linecap="round" />
<path d="M 920.5 332 C 920.5 374, 732 374, 732 416" fill="none" stroke="rgba(98,114,164,0.45)" stroke-width="1.5" stroke-linecap="round" />
<path d="M 920.5 332 C 920.5 374, 894 374, 894 416" fill="none" stroke="rgba(98,114,164,0.45)" stroke-width="1.5" stroke-linecap="round" />
<path d="M 920.5 332 C 920.5 374, 1082.5 374, 1082.5 416" fill="none" stroke="rgba(98,114,164,0.45)" stroke-width="1.5" stroke-linecap="round" />
<path d="M 823 184 C 823 226, 1301 226, 1301 268" fill="none" stroke="rgba(98,114,164,0.45)" stroke-width="1.5" stroke-linecap="round" />
<path d="M 823 184 C 823 226, 1512 226, 1512 268" fill="none" stroke="rgba(98,114,164,0.45)" stroke-width="1.5" stroke-linecap="round" />
<g filter="url(#shadow)"><rect x="56" y="268" width="126" height="64" rx="12" fill="#282a36" /><rect x="56" y="268" width="126" height="64" rx="12" fill="url(#card-sheen)" opacity="0.55" /><rect x="56" y="268" width="126" height="64" rx="12" fill="none" stroke="rgba(98,114,164,0.32)" stroke-width="1" /><rect x="66" y="282" width="3" height="36" rx="1.5" fill="#8be9fd" /><text x="78" y="295" font-size="14" font-weight="600" fill="#f8f8f2" letter-spacing="-0.1">Score SRP</text><text x="78" y="315" font-size="10" font-weight="600" fill="#6272a4" letter-spacing="1.2">ACTION</text></g>
<g filter="url(#shadow)"><rect x="222" y="268" width="223" height="64" rx="12" fill="#282a36" /><rect x="222" y="268" width="223" height="64" rx="12" fill="url(#card-sheen)" opacity="0.55" /><rect x="222" y="268" width="223" height="64" rx="12" fill="none" stroke="rgba(98,114,164,0.32)" stroke-width="1" /><rect x="232" y="282" width="3" height="36" rx="1.5" fill="#8be9fd" /><text x="244" y="295" font-size="14" font-weight="600" fill="#f8f8f2" letter-spacing="-0.1">Snapshot Initial Score</text><text x="244" y="315" font-size="10" font-weight="600" fill="#6272a4" letter-spacing="1.2">ACTION</text></g>
<g filter="url(#shadow)"><rect x="485" y="268" width="148" height="64" rx="12" fill="#282a36" /><rect x="485" y="268" width="148" height="64" rx="12" fill="url(#card-sheen)" opacity="0.55" /><rect x="485" y="268" width="148" height="64" rx="12" fill="none" stroke="rgba(98,114,164,0.32)" stroke-width="1" /><rect x="495" y="282" width="3" height="36" rx="1.5" fill="#8be9fd" /><text x="507" y="295" font-size="14" font-weight="600" fill="#f8f8f2" letter-spacing="-0.1">Await Choice</text><text x="507" y="315" font-size="10" font-weight="600" fill="#6272a4" letter-spacing="1.2">ACTION</text></g>
<g filter="url(#shadow)"><rect x="673" y="416" width="118" height="64" rx="12" fill="#282a36" /><rect x="673" y="416" width="118" height="64" rx="12" fill="url(#card-sheen)" opacity="0.55" /><rect x="673" y="416" width="118" height="64" rx="12" fill="none" stroke="rgba(98,114,164,0.32)" stroke-width="1" /><rect x="683" y="430" width="3" height="36" rx="1.5" fill="#8be9fd" /><text x="695" y="443" font-size="14" font-weight="600" fill="#f8f8f2" letter-spacing="-0.1">Refactor</text><text x="695" y="463" font-size="10" font-weight="600" fill="#6272a4" letter-spacing="1.2">ACTION</text></g>
<g filter="url(#shadow)"><rect x="831" y="416" width="126" height="64" rx="12" fill="#282a36" /><rect x="831" y="416" width="126" height="64" rx="12" fill="url(#card-sheen)" opacity="0.55" /><rect x="831" y="416" width="126" height="64" rx="12" fill="none" stroke="rgba(98,114,164,0.32)" stroke-width="1" /><rect x="841" y="430" width="3" height="36" rx="1.5" fill="#8be9fd" /><text x="853" y="443" font-size="14" font-weight="600" fill="#f8f8f2" letter-spacing="-0.1">Score SRP</text><text x="853" y="463" font-size="10" font-weight="600" fill="#6272a4" letter-spacing="1.2">ACTION</text></g>
<g filter="url(#shadow)"><rect x="997" y="416" width="171" height="64" rx="12" fill="#282a36" /><rect x="997" y="416" width="171" height="64" rx="12" fill="url(#card-sheen)" opacity="0.55" /><rect x="997" y="416" width="171" height="64" rx="12" fill="none" stroke="rgba(98,114,164,0.32)" stroke-width="1" /><rect x="1007" y="430" width="3" height="36" rx="1.5" fill="#8be9fd" /><text x="1019" y="443" font-size="14" font-weight="600" fill="#f8f8f2" letter-spacing="-0.1">Verify Resolved</text><text x="1019" y="463" font-size="10" font-weight="600" fill="#6272a4" letter-spacing="1.2">ACTION</text></g>
<g filter="url(#shadow)"><rect x="842.5" y="268" width="156" height="64" rx="12" fill="#282a36" /><rect x="842.5" y="268" width="156" height="64" rx="12" fill="url(#card-sheen)" opacity="0.55" /><rect x="842.5" y="268" width="156" height="64" rx="12" fill="none" stroke="rgba(98,114,164,0.32)" stroke-width="1" /><rect x="852.5" y="282" width="3" height="36" rx="1.5" fill="#50fa7b" /><text x="864.5" y="295" font-size="14" font-weight="600" fill="#f8f8f2" letter-spacing="-0.1">Refactor Loop</text><text x="864.5" y="315" font-size="10" font-weight="600" fill="#6272a4" letter-spacing="1.2">SEQUENCE</text></g>
<g filter="url(#shadow)"><rect x="1208" y="268" width="186" height="64" rx="12" fill="#282a36" /><rect x="1208" y="268" width="186" height="64" rx="12" fill="url(#card-sheen)" opacity="0.55" /><rect x="1208" y="268" width="186" height="64" rx="12" fill="none" stroke="rgba(98,114,164,0.32)" stroke-width="1" /><rect x="1218" y="282" width="3" height="36" rx="1.5" fill="#8be9fd" /><text x="1230" y="295" font-size="14" font-weight="600" fill="#f8f8f2" letter-spacing="-0.1">Final Code Review</text><text x="1230" y="315" font-size="10" font-weight="600" fill="#6272a4" letter-spacing="1.2">ACTION</text></g>
<g filter="url(#shadow)"><rect x="1434" y="268" width="156" height="64" rx="12" fill="#282a36" /><rect x="1434" y="268" width="156" height="64" rx="12" fill="url(#card-sheen)" opacity="0.55" /><rect x="1434" y="268" width="156" height="64" rx="12" fill="none" stroke="rgba(98,114,164,0.32)" stroke-width="1" /><rect x="1444" y="282" width="3" height="36" rx="1.5" fill="#8be9fd" /><text x="1456" y="295" font-size="14" font-weight="600" fill="#f8f8f2" letter-spacing="-0.1">Change Report</text><text x="1456" y="315" font-size="10" font-weight="600" fill="#6272a4" letter-spacing="1.2">ACTION</text></g>
<g filter="url(#shadow)"><rect x="763.5" y="120" width="119" height="64" rx="12" fill="#282a36" /><rect x="763.5" y="120" width="119" height="64" rx="12" fill="url(#card-sheen)" opacity="0.55" /><rect x="763.5" y="120" width="119" height="64" rx="12" fill="none" stroke="rgba(98,114,164,0.32)" stroke-width="1" /><rect x="773.5" y="134" width="3" height="36" rx="1.5" fill="#50fa7b" /><text x="785.5" y="147" font-size="14" font-weight="600" fill="#f8f8f2" letter-spacing="-0.1">Top</text><text x="785.5" y="167" font-size="10" font-weight="600" fill="#6272a4" letter-spacing="1.2">SEQUENCE</text></g>
<rect x="755.5" y="112" width="135" height="80" rx="20" fill="none" stroke="#ff79c6" stroke-width="3" opacity="0" filter="url(#ring-glow)"><animate attributeName="opacity" values="0;0;1;0;0" keyTimes="0;0.0107;0.0357;0.0607;1" dur="14.00s" repeatCount="indefinite" /></rect><rect x="48" y="260" width="142" height="80" rx="20" fill="none" stroke="#ff79c6" stroke-width="3" opacity="0" filter="url(#ring-glow)"><animate attributeName="opacity" values="0;0;1;0;0" keyTimes="0;0.0679;0.0929;0.1179;1" dur="14.00s" repeatCount="indefinite" /></rect><rect x="214" y="260" width="239" height="80" rx="20" fill="none" stroke="#ff79c6" stroke-width="3" opacity="0" filter="url(#ring-glow)"><animate attributeName="opacity" values="0;0;1;0;0" keyTimes="0;0.1250;0.1500;0.1750;1" dur="14.00s" repeatCount="indefinite" /></rect><rect x="477" y="260" width="164" height="80" rx="20" fill="none" stroke="#ff79c6" stroke-width="3" opacity="0" filter="url(#ring-glow)"><animate attributeName="opacity" values="0;0;1;0;0" keyTimes="0;0.1821;0.2071;0.2321;1" dur="14.00s" repeatCount="indefinite" /></rect><rect x="834.5" y="260" width="172" height="80" rx="20" fill="none" stroke="#ff79c6" stroke-width="3" opacity="0" filter="url(#ring-glow)"><animate attributeName="opacity" values="0;0;1;0;0" keyTimes="0;0.2393;0.2643;0.2893;1" dur="14.00s" repeatCount="indefinite" /></rect><rect x="665" y="408" width="134" height="80" rx="20" fill="none" stroke="#ff79c6" stroke-width="3" opacity="0" filter="url(#ring-glow)"><animate attributeName="opacity" values="0;0;1;0;0" keyTimes="0;0.2964;0.3214;0.3464;1" dur="14.00s" repeatCount="indefinite" /></rect><rect x="665" y="408" width="134" height="80" rx="20" fill="none" stroke="#ff79c6" stroke-width="3" opacity="0" filter="url(#ring-glow)"><animate attributeName="opacity" values="0;0;1;0;0" keyTimes="0;0.5250;0.5500;0.5750;1" dur="14.00s" repeatCount="indefinite" /></rect><rect x="823" y="408" width="142" height="80" rx="20" fill="none" stroke="#ff79c6" stroke-width="3" opacity="0" filter="url(#ring-glow)"><animate attributeName="opacity" values="0;0;1;0;0" keyTimes="0;0.3536;0.3786;0.4036;1" dur="14.00s" repeatCount="indefinite" /></rect><rect x="823" y="408" width="142" height="80" rx="20" fill="none" stroke="#ff79c6" stroke-width="3" opacity="0" filter="url(#ring-glow)"><animate attributeName="opacity" values="0;0;1;0;0" keyTimes="0;0.5821;0.6071;0.6321;1" dur="14.00s" repeatCount="indefinite" /></rect><rect x="989" y="408" width="187" height="80" rx="20" fill="none" stroke="#ff79c6" stroke-width="3" opacity="0" filter="url(#ring-glow)"><animate attributeName="opacity" values="0;0;1;0;0" keyTimes="0;0.4107;0.4357;0.4607;1" dur="14.00s" repeatCount="indefinite" /></rect><rect x="989" y="408" width="187" height="80" rx="20" fill="none" stroke="#ff79c6" stroke-width="3" opacity="0" filter="url(#ring-glow)"><animate attributeName="opacity" values="0;0;1;0;0" keyTimes="0;0.6393;0.6643;0.6893;1" dur="14.00s" repeatCount="indefinite" /></rect><rect x="1200" y="260" width="202" height="80" rx="20" fill="none" stroke="#ff79c6" stroke-width="3" opacity="0" filter="url(#ring-glow)"><animate attributeName="opacity" values="0;0;1;0;0" keyTimes="0;0.7321;0.7571;0.7821;1" dur="14.00s" repeatCount="indefinite" /></rect><rect x="1426" y="260" width="172" height="80" rx="20" fill="none" stroke="#ff79c6" stroke-width="3" opacity="0" filter="url(#ring-glow)"><animate attributeName="opacity" values="0;0;1;0;0" keyTimes="0;0.7893;0.8143;0.8393;1" dur="14.00s" repeatCount="indefinite" /></rect>
<rect x="763.5" y="120" width="119" height="64" rx="12" fill="none" stroke="#ffb86c" stroke-width="1.4" opacity="0"><animate attributeName="opacity" values="0;0;1;1;0;0;0" keyTimes="0.0000;0.0357;0.0536;0.8500;0.8679;0.9950;1.0000" dur="14.00s" repeatCount="indefinite" /></rect><g opacity="0"><circle cx="866.5" cy="136" r="9" fill="#ffb86c" opacity="0.18"><animate attributeName="r" values="6;11;6" dur="1.6s" repeatCount="indefinite" /><animate attributeName="opacity" values="0.35;0;0.35" dur="1.6s" repeatCount="indefinite" /></circle><circle cx="866.5" cy="136" r="5" fill="#ffb86c" /><animate attributeName="opacity" values="0;0;1;1;0;0;0" keyTimes="0.0000;0.0357;0.0536;0.8500;0.8679;0.9950;1.0000" dur="14.00s" repeatCount="indefinite" /></g><rect x="763.5" y="120" width="119" height="64" rx="12" fill="none" stroke="#50fa7b" stroke-width="1.4" opacity="0"><animate attributeName="opacity" values="0;0;1;1;0" keyTimes="0.0000;0.8500;0.8679;0.9950;1.0000" dur="14.00s" repeatCount="indefinite" /></rect><g opacity="0"><circle cx="866.5" cy="136" r="6" fill="#50fa7b" /><path d="M 863.9 136.2 L 865.9 138.4 L 869.3 133.8" stroke="#1e1f29" stroke-width="1.6" fill="none" stroke-linecap="round" stroke-linejoin="round" /><animate attributeName="opacity" values="0;0;1;1;0" keyTimes="0.0000;0.8500;0.8679;0.9950;1.0000" dur="14.00s" repeatCount="indefinite" /></g><rect x="56" y="268" width="126" height="64" rx="12" fill="none" stroke="#50fa7b" stroke-width="1.4" opacity="0"><animate attributeName="opacity" values="0;0;1;1;0" keyTimes="0.0000;0.0929;0.1107;0.9950;1.0000" dur="14.00s" repeatCount="indefinite" /></rect><g opacity="0"><circle cx="166" cy="284" r="6" fill="#50fa7b" /><path d="M 163.4 284.2 L 165.4 286.4 L 168.8 281.8" stroke="#1e1f29" stroke-width="1.6" fill="none" stroke-linecap="round" stroke-linejoin="round" /><animate attributeName="opacity" values="0;0;1;1;0" keyTimes="0.0000;0.0929;0.1107;0.9950;1.0000" dur="14.00s" repeatCount="indefinite" /></g><rect x="222" y="268" width="223" height="64" rx="12" fill="none" stroke="#50fa7b" stroke-width="1.4" opacity="0"><animate attributeName="opacity" values="0;0;1;1;0" keyTimes="0.0000;0.1500;0.1679;0.9950;1.0000" dur="14.00s" repeatCount="indefinite" /></rect><g opacity="0"><circle cx="429" cy="284" r="6" fill="#50fa7b" /><path d="M 426.4 284.2 L 428.4 286.4 L 431.8 281.8" stroke="#1e1f29" stroke-width="1.6" fill="none" stroke-linecap="round" stroke-linejoin="round" /><animate attributeName="opacity" values="0;0;1;1;0" keyTimes="0.0000;0.1500;0.1679;0.9950;1.0000" dur="14.00s" repeatCount="indefinite" /></g><rect x="485" y="268" width="148" height="64" rx="12" fill="none" stroke="#50fa7b" stroke-width="1.4" opacity="0"><animate attributeName="opacity" values="0;0;1;1;0" keyTimes="0.0000;0.2071;0.2250;0.9950;1.0000" dur="14.00s" repeatCount="indefinite" /></rect><g opacity="0"><circle cx="617" cy="284" r="6" fill="#50fa7b" /><path d="M 614.4 284.2 L 616.4 286.4 L 619.8 281.8" stroke="#1e1f29" stroke-width="1.6" fill="none" stroke-linecap="round" stroke-linejoin="round" /><animate attributeName="opacity" values="0;0;1;1;0" keyTimes="0.0000;0.2071;0.2250;0.9950;1.0000" dur="14.00s" repeatCount="indefinite" /></g><rect x="842.5" y="268" width="156" height="64" rx="12" fill="none" stroke="#ffb86c" stroke-width="1.4" opacity="0"><animate attributeName="opacity" values="0;0;1;1;0;0;0" keyTimes="0.0000;0.2643;0.2821;0.7000;0.7179;0.9950;1.0000" dur="14.00s" repeatCount="indefinite" /></rect><g opacity="0"><circle cx="982.5" cy="284" r="9" fill="#ffb86c" opacity="0.18"><animate attributeName="r" values="6;11;6" dur="1.6s" repeatCount="indefinite" /><animate attributeName="opacity" values="0.35;0;0.35" dur="1.6s" repeatCount="indefinite" /></circle><circle cx="982.5" cy="284" r="5" fill="#ffb86c" /><animate attributeName="opacity" values="0;0;1;1;0;0;0" keyTimes="0.0000;0.2643;0.2821;0.7000;0.7179;0.9950;1.0000" dur="14.00s" repeatCount="indefinite" /></g><rect x="842.5" y="268" width="156" height="64" rx="12" fill="none" stroke="#50fa7b" stroke-width="1.4" opacity="0"><animate attributeName="opacity" values="0;0;1;1;0" keyTimes="0.0000;0.7000;0.7179;0.9950;1.0000" dur="14.00s" repeatCount="indefinite" /></rect><g opacity="0"><circle cx="982.5" cy="284" r="6" fill="#50fa7b" /><path d="M 979.9 284.2 L 981.9 286.4 L 985.3 281.8" stroke="#1e1f29" stroke-width="1.6" fill="none" stroke-linecap="round" stroke-linejoin="round" /><animate attributeName="opacity" values="0;0;1;1;0" keyTimes="0.0000;0.7000;0.7179;0.9950;1.0000" dur="14.00s" repeatCount="indefinite" /></g><rect x="673" y="416" width="118" height="64" rx="12" fill="none" stroke="#50fa7b" stroke-width="1.4" opacity="0"><animate attributeName="opacity" values="0;0;1;1;0;0;1;1;0" keyTimes="0.0000;0.3214;0.3393;0.4929;0.5107;0.5500;0.5679;0.9950;1.0000" dur="14.00s" repeatCount="indefinite" /></rect><g opacity="0"><circle cx="775" cy="432" r="6" fill="#50fa7b" /><path d="M 772.4 432.2 L 774.4 434.4 L 777.8 429.8" stroke="#1e1f29" stroke-width="1.6" fill="none" stroke-linecap="round" stroke-linejoin="round" /><animate attributeName="opacity" values="0;0;1;1;0;0;1;1;0" keyTimes="0.0000;0.3214;0.3393;0.4929;0.5107;0.5500;0.5679;0.9950;1.0000" dur="14.00s" repeatCount="indefinite" /></g><rect x="831" y="416" width="126" height="64" rx="12" fill="none" stroke="#50fa7b" stroke-width="1.4" opacity="0"><animate attributeName="opacity" values="0;0;1;1;0;0;1;1;0" keyTimes="0.0000;0.3786;0.3964;0.4929;0.5107;0.6071;0.6250;0.9950;1.0000" dur="14.00s" repeatCount="indefinite" /></rect><g opacity="0"><circle cx="941" cy="432" r="6" fill="#50fa7b" /><path d="M 938.4 432.2 L 940.4 434.4 L 943.8 429.8" stroke="#1e1f29" stroke-width="1.6" fill="none" stroke-linecap="round" stroke-linejoin="round" /><animate attributeName="opacity" values="0;0;1;1;0;0;1;1;0" keyTimes="0.0000;0.3786;0.3964;0.4929;0.5107;0.6071;0.6250;0.9950;1.0000" dur="14.00s" repeatCount="indefinite" /></g><rect x="997" y="416" width="171" height="64" rx="12" fill="none" stroke="#ff5555" stroke-width="1.4" opacity="0"><animate attributeName="opacity" values="0;0;1;1;0;0;0" keyTimes="0.0000;0.4357;0.4536;0.4929;0.5107;0.9950;1.0000" dur="14.00s" repeatCount="indefinite" /></rect><g opacity="0"><circle cx="1152" cy="432" r="6" fill="#ff5555" /><path d="M 1149.6 429.6 L 1154.4 434.4 M 1149.6 434.4 L 1154.4 429.6" stroke="#1e1f29" stroke-width="1.6" stroke-linecap="round" /><animate attributeName="opacity" values="0;0;1;1;0;0;0" keyTimes="0.0000;0.4357;0.4536;0.4929;0.5107;0.9950;1.0000" dur="14.00s" repeatCount="indefinite" /></g><rect x="997" y="416" width="171" height="64" rx="12" fill="none" stroke="#50fa7b" stroke-width="1.4" opacity="0"><animate attributeName="opacity" values="0;0;1;1;0" keyTimes="0.0000;0.6643;0.6821;0.9950;1.0000" dur="14.00s" repeatCount="indefinite" /></rect><g opacity="0"><circle cx="1152" cy="432" r="6" fill="#50fa7b" /><path d="M 1149.4 432.2 L 1151.4 434.4 L 1154.8 429.8" stroke="#1e1f29" stroke-width="1.6" fill="none" stroke-linecap="round" stroke-linejoin="round" /><animate attributeName="opacity" values="0;0;1;1;0" keyTimes="0.0000;0.6643;0.6821;0.9950;1.0000" dur="14.00s" repeatCount="indefinite" /></g><rect x="1208" y="268" width="186" height="64" rx="12" fill="none" stroke="#50fa7b" stroke-width="1.4" opacity="0"><animate attributeName="opacity" values="0;0;1;1;0" keyTimes="0.0000;0.7571;0.7750;0.9950;1.0000" dur="14.00s" repeatCount="indefinite" /></rect><g opacity="0"><circle cx="1378" cy="284" r="6" fill="#50fa7b" /><path d="M 1375.4 284.2 L 1377.4 286.4 L 1380.8 281.8" stroke="#1e1f29" stroke-width="1.6" fill="none" stroke-linecap="round" stroke-linejoin="round" /><animate attributeName="opacity" values="0;0;1;1;0" keyTimes="0.0000;0.7571;0.7750;0.9950;1.0000" dur="14.00s" repeatCount="indefinite" /></g><rect x="1434" y="268" width="156" height="64" rx="12" fill="none" stroke="#50fa7b" stroke-width="1.4" opacity="0"><animate attributeName="opacity" values="0;0;1;1;0" keyTimes="0.0000;0.8143;0.8321;0.9950;1.0000" dur="14.00s" repeatCount="indefinite" /></rect><g opacity="0"><circle cx="1574" cy="284" r="6" fill="#50fa7b" /><path d="M 1571.4 284.2 L 1573.4 286.4 L 1576.8 281.8" stroke="#1e1f29" stroke-width="1.6" fill="none" stroke-linecap="round" stroke-linejoin="round" /><animate attributeName="opacity" values="0;0;1;1;0" keyTimes="0.0000;0.8143;0.8321;0.9950;1.0000" dur="14.00s" repeatCount="indefinite" /></g>
</svg>
