<?xml version="1.0" encoding="UTF-8"?>
<svg xmlns="http://www.w3.org/2000/svg" viewBox="0 0 607 388" width="607" height="388" font-family='"Inter","SF Pro Text",-apple-system,BlinkMacSystemFont,"Segoe UI",Roboto,sans-serif'>
<defs><linearGradient id="card-sheen" x1="0" y1="0" x2="0" y2="1"><stop offset="0" stop-color="#44475a" stop-opacity="0.55" /><stop offset="1" stop-color="#282a36" stop-opacity="0" /></linearGradient><filter id="shadow" x="-20%" y="-20%" width="140%" height="160%"><feDropShadow dx="0" dy="3" stdDeviation="4" flood-color="#000000" flood-opacity="0.45" /></filter><filter id="glow" x="-50%" y="-50%" width="200%" height="200%"><feDropShadow dx="0" dy="0" stdDeviation="6" flood-color="#f1fa8c" flood-opacity="0.55" /><feDropShadow dx="0" dy="3" stdDeviation="4" flood-color="#000000" flood-opacity="0.45" /></filter><filter id="ring-glow" x="-30%" y="-30%" width="160%" height="160%"><feDropShadow dx="0" dy="0" stdDeviation="8" flood-color="#ff79c6" flood-opacity="0.9" /><feDropShadow dx="0" dy="0" stdDeviation="3" flood-color="#ff79c6" flood-opacity="0.9" /></filter></defs>
<text x="56" y="80" font-size="20" font-weight="700" fill="#f8f8f2" letter-spacing="-0.4">Refactor loop</text>
<text x="56" y="102" font-size="11" font-weight="600" fill="#ff79c6" letter-spacing="1.4">BEHAVIOUR TREE</text>
<path d="M 303.5 184 C 303.5 226, 115 226, 115 268" fill="none" stroke="rgba(98,114,164,0.45)" stroke-width="1.5" stroke-linecap="round" />
<path d="M 303.5 184 C 303.5 226, 277 226, 277 268" fill="none" stroke="rgba(98,114,164,0.45)" stroke-width="1.5" stroke-linecap="round" />
<path d="M 303.5 184 C 303.5 226, 465.5 226, 465.5 268" fill="none" stroke="rgba(98,114,164,0.45)" stroke-width="1.5" stroke-linecap="round" />
<g filter="url(#shadow)"><rect x="56" y="268" width="118" height="64" rx="12" fill="#282a36" /><rect x="56" y="268" width="118" height="64" rx="12" fill="url(#card-sheen)" opacity="0.55" /><rect x="56" y="268" width="118" height="64" rx="12" fill="none" stroke="rgba(98,114,164,0.32)" stroke-width="1" /><rect x="66" y="282" width="3" height="36" rx="1.5" fill="#8be9fd" /><text x="78" y="295" font-size="14" font-weight="600" fill="#f8f8f2" letter-spacing="-0.1">Refactor</text><text x="78" y="315" font-size="10" font-weight="600" fill="#6272a4" letter-spacing="1.2">ACTION</text></g>
<g filter="url(#shadow)"><rect x="214" y="268" width="126" height="64" rx="12" fill="#282a36" /><rect x="214" y="268" width="126" height="64" rx="12" fill="url(#card-sheen)" opacity="0.55" /><rect x="214" y="268" width="126" height="64" rx="12" fill="none" stroke="rgba(98,114,164,0.32)" stroke-width="1" /><rect x="224" y="282" width="3" height="36" rx="1.5" fill="#8be9fd" /><text x="236" y="295" font-size="14" font-weight="600" fill="#f8f8f2" letter-spacing="-0.1">Score SRP</text><text x="236" y="315" font-size="10" font-weight="600" fill="#6272a4" letter-spacing="1.2">ACTION</text></g>
<g filter="url(#shadow)"><rect x="380" y="268" width="171" height="64" rx="12" fill="#282a36" /><rect x="380" y="268" width="171" height="64" rx="12" fill="url(#card-sheen)" opacity="0.55" /><rect x="380" y="268" width="171" height="64" rx="12" fill="none" stroke="rgba(98,114,164,0.32)" stroke-width="1" /><rect x="390" y="282" width="3" height="36" rx="1.5" fill="#8be9fd" /><text x="402" y="295" font-size="14" font-weight="600" fill="#f8f8f2" letter-spacing="-0.1">Verify Resolved</text><text x="402" y="315" font-size="10" font-weight="600" fill="#6272a4" letter-spacing="1.2">ACTION</text></g>
<g filter="url(#shadow)"><rect x="225.5" y="120" width="156" height="64" rx="12" fill="#282a36" /><rect x="225.5" y="120" width="156" height="64" rx="12" fill="url(#card-sheen)" opacity="0.55" /><rect x="225.5" y="120" width="156" height="64" rx="12" fill="none" stroke="rgba(98,114,164,0.32)" stroke-width="1" /><rect x="235.5" y="134" width="3" height="36" rx="1.5" fill="#50fa7b" /><text x="247.5" y="147" font-size="14" font-weight="600" fill="#f8f8f2" letter-spacing="-0.1">Refactor Loop</text><text x="247.5" y="167" font-size="10" font-weight="600" fill="#6272a4" letter-spacing="1.2">SEQUENCE</text></g>
<rect x="217.5" y="112" width="172" height="80" rx="20" fill="none" stroke="#ff79c6" stroke-width="3" opacity="0" filter="url(#ring-glow)"><animate attributeName="opacity" values="0;0;1;0;0" keyTimes="0;0.0000;0.0000;0.0292;1" dur="12.00s" repeatCount="indefinite" /></rect><rect x="217.5" y="112" width="172" height="80" rx="20" fill="none" stroke="#ff79c6" stroke-width="3" opacity="0" filter="url(#ring-glow)"><animate attributeName="opacity" values="0;0;1;0;0" keyTimes="0;0.3208;0.3500;0.3792;1" dur="12.00s" repeatCount="indefinite" /></rect><rect x="217.5" y="112" width="172" height="80" rx="20" fill="none" stroke="#ff79c6" stroke-width="3" opacity="0" filter="url(#ring-glow)"><animate attributeName="opacity" values="0;0;1;0;0" keyTimes="0;0.3542;0.3833;0.4125;1" dur="12.00s" repeatCount="indefinite" /></rect><rect x="217.5" y="112" width="172" height="80" rx="20" fill="none" stroke="#ff79c6" stroke-width="3" opacity="0" filter="url(#ring-glow)"><animate attributeName="opacity" values="0;0;1;0;0" keyTimes="0;0.6708;0.7000;0.7292;1" dur="12.00s" repeatCount="indefinite" /></rect><rect x="48" y="260" width="134" height="80" rx="20" fill="none" stroke="#ff79c6" stroke-width="3" opacity="0" filter="url(#ring-glow)"><animate attributeName="opacity" values="0;0;1;0;0" keyTimes="0;0.0208;0.0500;0.0792;1" dur="12.00s" repeatCount="indefinite" /></rect><rect x="48" y="260" width="134" height="80" rx="20" fill="none" stroke="#ff79c6" stroke-width="3" opacity="0" filter="url(#ring-glow)"><animate attributeName="opacity" values="0;0;1;0;0" keyTimes="0;0.4042;0.4333;0.4625;1" dur="12.00s" repeatCount="indefinite" /></rect><rect x="206" y="260" width="142" height="80" rx="20" fill="none" stroke="#ff79c6" stroke-width="3" opacity="0" filter="url(#ring-glow)"><animate attributeName="opacity" values="0;0;1;0;0" keyTimes="0;0.1208;0.1500;0.1792;1" dur="12.00s" repeatCount="indefinite" /></rect><rect x="206" y="260" width="142" height="80" rx="20" fill="none" stroke="#ff79c6" stroke-width="3" opacity="0" filter="url(#ring-glow)"><animate attributeName="opacity" values="0;0;1;0;0" keyTimes="0;0.5042;0.5333;0.5625;1" dur="12.00s" repeatCount="indefinite" /></rect><rect x="372" y="260" width="187" height="80" rx="20" fill="none" stroke="#ff79c6" stroke-width="3" opacity="0" filter="url(#ring-glow)"><animate attributeName="opacity" values="0;0;1;0;0" keyTimes="0;0.2208;0.2500;0.2792;1" dur="12.00s" repeatCount="indefinite" /></rect><rect x="372" y="260" width="187" height="80" rx="20" fill="none" stroke="#ff79c6" stroke-width="3" opacity="0" filter="url(#ring-glow)"><animate attributeName="opacity" values="0;0;1;0;0" keyTimes="0;0.6042;0.6333;0.6625;1" dur="12.00s" repeatCount="indefinite" /></rect>
<rect x="225.5" y="120" width="156" height="64" rx="12" fill="none" stroke="#ffb86c" stroke-width="1.4" opacity="0"><animate attributeName="opacity" values="0;0;1;1;0;0;1;1;0;0;0" keyTimes="0.0000;0.0000;0.0208;0.3500;0.3708;0.3833;0.4042;0.7000;0.7208;0.9950;1.0000" dur="12.00s" repeatCount="indefinite" /></rect><g opacity="0"><circle cx="365.5" cy="136" r="9" fill="#ffb86c" opacity="0.18"><animate attributeName="r" values="6;11;6" dur="1.6s" repeatCount="indefinite" /><animate attributeName="opacity" values="0.35;0;0.35" dur="1.6s" repeatCount="indefinite" /></circle><circle cx="365.5" cy="136" r="5" fill="#ffb86c" /><animate attributeName="opacity" values="0;0;1;1;0;0;1;1;0;0;0" keyTimes="0.0000;0.0000;0.0208;0.3500;0.3708;0.3833;0.4042;0.7000;0.7208;0.9950;1.0000" dur="12.00s" repeatCount="indefinite" /></g><rect x="225.5" y="120" width="156" height="64" rx="12" fill="none" stroke="#50fa7b" stroke-width="1.4" opacity="0"><animate attributeName="opacity" values="0;0;1;1;0" keyTimes="0.0000;0.7000;0.7208;0.9950;1.0000" dur="12.00s" repeatCount="indefinite" /></rect><g opacity="0"><circle cx="365.5" cy="136" r="6" fill="#50fa7b" /><path d="M 362.9 136.2 L 364.9 138.4 L 368.3 133.8" stroke="#1e1f29" stroke-width="1.6" fill="none" stroke-linecap="round" stroke-linejoin="round" /><animate attributeName="opacity" values="0;0;1;1;0" keyTimes="0.0000;0.7000;0.7208;0.9950;1.0000" dur="12.00s" repeatCount="indefinite" /></g><rect x="56" y="268" width="118" height="64" rx="12" fill="none" stroke="#50fa7b" stroke-width="1.4" opacity="0"><animate attributeName="opacity" values="0;0;1;1;0" keyTimes="0.0000;0.0500;0.0708;0.9950;1.0000" dur="12.00s" repeatCount="indefinite" /></rect><g opacity="0"><circle cx="158" cy="284" r="6" fill="#50fa7b" /><path d="M 155.4 284.2 L 157.4 286.4 L 160.8 281.8" stroke="#1e1f29" stroke-width="1.6" fill="none" stroke-linecap="round" stroke-linejoin="round" /><animate attributeName="opacity" values="0;0;1;1;0" keyTimes="0.0000;0.0500;0.0708;0.9950;1.0000" dur="12.00s" repeatCount="indefinite" /></g><rect x="214" y="268" width="126" height="64" rx="12" fill="none" stroke="#50fa7b" stroke-width="1.4" opacity="0"><animate attributeName="opacity" values="0;0;1;1;0" keyTimes="0.0000;0.1500;0.1708;0.9950;1.0000" dur="12.00s" repeatCount="indefinite" /></rect><g opacity="0"><circle cx="324" cy="284" r="6" fill="#50fa7b" /><path d="M 321.4 284.2 L 323.4 286.4 L 326.8 281.8" stroke="#1e1f29" stroke-width="1.6" fill="none" stroke-linecap="round" stroke-linejoin="round" /><animate attributeName="opacity" values="0;0;1;1;0" keyTimes="0.0000;0.1500;0.1708;0.9950;1.0000" dur="12.00s" repeatCount="indefinite" /></g><rect x="380" y="268" width="171" height="64" rx="12" fill="none" stroke="#ff5555" stroke-width="1.4" opacity="0"><animate attributeName="opacity" values="0;0;1;1;0;0;0" keyTimes="0.0000;0.2500;0.2708;0.6333;0.6542;0.9950;1.0000" dur="12.00s" repeatCount="indefinite" /></rect><g opacity="0"><circle cx="535" cy="284" r="6" fill="#ff5555" /><path d="M 532.6 281.6 L 537.4 286.4 M 532.6 286.4 L 537.4 281.6" stroke="#1e1f29" stroke-width="1.6" stroke-linecap="round" /><animate attributeName="opacity" values="0;0;1;1;0;0;0" keyTimes="0.0000;0.2500;0.2708;0.6333;0.6542;0.9950;1.0000" dur="12.00s" repeatCount="indefinite" /></g><rect x="380" y="268" width="171" height="64" rx="12" fill="none" stroke="#50fa7b" stroke-width="1.4" opacity="0"><animate attributeName="opacity" values="0;0;1;1;0" keyTimes="0.0000;0.6333;0.6542;0.9950;1.0000" dur="12.00s" repeatCount="indefinite" /></rect><g opacity="0"><circle cx="535" cy="284" r="6" fill="#50fa7b" /><path d="M 532.4 284.2 L 534.4 286.4 L 537.8 281.8" stroke="#1e1f29" stroke-width="1.6" fill="none" stroke-linecap="round" stroke-linejoin="round" /><animate attributeName="opacity" values="0;0;1;1;0" keyTimes="0.0000;0.6333;0.6542;0.9950;1.0000" dur="12.00s" repeatCount="indefinite" /></g>
</svg>
