<?xml version="1.0" encoding="UTF-8"?>
<svg xmlns="http://www.w3.org/2000/svg" viewBox="0 0 1134 536" width="1134" height="536" font-family='"Inter","SF Pro Text",-apple-system,BlinkMacSystemFont,"Segoe UI",Roboto,sans-serif'>
<defs><linearGradient id="card-sheen" x1="0" y1="0" x2="0" y2="1"><stop offset="0" stop-color="#44475a" stop-opacity="0.55" /><stop offset="1" stop-color="#282a36" stop-opacity="0" /></linearGradient><filter id="shadow" x="-20%" y="-20%" width="140%" height="160%"><feDropShadow dx="0" dy="3" stdDeviation="4" flood-color="#000000" flood-opacity="0.45" /></filter><filter id="glow" x="-50%" y="-50%" width="200%" height="200%"><feDropShadow dx="0" dy="0" stdDeviation="6" flood-color="#f1fa8c" flood-opacity="0.55" /><feDropShadow dx="0" dy="3" stdDeviation="4" flood-color="#000000" flood-opacity="0.45" /></filter></defs>
<text x="56" y="80" font-size="20" font-weight="700" fill="#f8f8f2" letter-spacing="-0.4">Improve Tree Workflow</text>
<text x="56" y="102" font-size="11" font-weight="600" fill="#ff79c6" letter-spacing="1.4">BEHAVIOUR TREE</text>
<path d="M 567 184 C 567 226, 141.5 226, 141.5 268" fill="none" stroke="rgba(98,114,164,0.45)" stroke-width="1.5" stroke-linecap="round" />
<path d="M 567 184 C 567 226, 480.5 226, 480.5 268" fill="none" stroke="rgba(98,114,164,0.45)" stroke-width="1.5" stroke-linecap="round" />
<path d="M 480.5 332 C 480.5 374, 367.5 374, 367.5 416" fill="none" stroke="rgba(98,114,164,0.45)" stroke-width="1.5" stroke-linecap="round" />
<path d="M 480.5 332 C 480.5 374, 601 374, 601 416" fill="none" stroke="rgba(98,114,164,0.45)" stroke-width="1.5" stroke-linecap="round" />
<path d="M 567 184 C 567 226, 800.5 226, 800.5 268" fill="none" stroke="rgba(98,114,164,0.45)" stroke-width="1.5" stroke-linecap="round" />
<path d="M 567 184 C 567 226, 992.5 226, 992.5 268" fill="none" stroke="rgba(98,114,164,0.45)" stroke-width="1.5" stroke-linecap="round" />
<g filter="url(#shadow)"><rect x="56" y="268" width="171" height="64" rx="12" fill="#282a36" /><rect x="56" y="268" width="171" height="64" rx="12" fill="url(#card-sheen)" opacity="0.55" /><rect x="56" y="268" width="171" height="64" rx="12" fill="none" stroke="rgba(98,114,164,0.32)" stroke-width="1" /><rect x="66" y="282" width="3" height="36" rx="1.5" fill="#8be9fd" /><text x="78" y="295" font-size="14" font-weight="600" fill="#f8f8f2" letter-spacing="-0.1">Identify Target</text><text x="78" y="315" font-size="10" font-weight="600" fill="#6272a4" letter-spacing="1.2">ACTION</text></g>
<g filter="url(#shadow)"><rect x="267" y="416" width="201" height="64" rx="12" fill="#282a36" /><rect x="267" y="416" width="201" height="64" rx="12" fill="url(#card-sheen)" opacity="0.55" /><rect x="267" y="416" width="201" height="64" rx="12" fill="none" stroke="rgba(98,114,164,0.32)" stroke-width="1" /><rect x="277" y="430" width="3" height="36" rx="1.5" fill="#8be9fd" /><text x="289" y="443" font-size="14" font-weight="600" fill="#f8f8f2" letter-spacing="-0.1">Score Effectiveness</text><text x="289" y="463" font-size="10" font-weight="600" fill="#6272a4" letter-spacing="1.2">ACTION</text></g>
<g filter="url(#shadow)"><rect x="508" y="416" width="186" height="64" rx="12" fill="#282a36" /><rect x="508" y="416" width="186" height="64" rx="12" fill="url(#card-sheen)" opacity="0.55" /><rect x="508" y="416" width="186" height="64" rx="12" fill="none" stroke="rgba(98,114,164,0.32)" stroke-width="1" /><rect x="518" y="430" width="3" height="36" rx="1.5" fill="#8be9fd" /><text x="530" y="443" font-size="14" font-weight="600" fill="#f8f8f2" letter-spacing="-0.1">Find Improvements</text><text x="530" y="463" font-size="10" font-weight="600" fill="#6272a4" letter-spacing="1.2">ACTION</text></g>
<g filter="url(#shadow)"><rect x="399" y="268" width="163" height="64" rx="12" fill="#282a36" /><rect x="399" y="268" width="163" height="64" rx="12" fill="url(#card-sheen)" opacity="0.55" /><rect x="399" y="268" width="163" height="64" rx="12" fill="none" stroke="rgba(98,114,164,0.32)" stroke-width="1" /><rect x="409" y="282" width="3" height="36" rx="1.5" fill="#ffb86c" /><text x="421" y="295" font-size="14" font-weight="600" fill="#f8f8f2" letter-spacing="-0.1">Score And Find</text><text x="421" y="315" font-size="10" font-weight="600" fill="#6272a4" letter-spacing="1.2">PARALLEL</text></g>
<g filter="url(#shadow)"><rect x="734" y="268" width="133" height="64" rx="12" fill="#282a36" /><rect x="734" y="268" width="133" height="64" rx="12" fill="url(#card-sheen)" opacity="0.55" /><rect x="734" y="268" width="133" height="64" rx="12" fill="none" stroke="rgba(98,114,164,0.32)" stroke-width="1" /><rect x="744" y="282" width="3" height="36" rx="1.5" fill="#8be9fd" /><text x="756" y="295" font-size="14" font-weight="600" fill="#f8f8f2" letter-spacing="-0.1">Draft Plan</text><text x="756" y="315" font-size="10" font-weight="600" fill="#6272a4" letter-spacing="1.2">ACTION</text></g>
<g filter="url(#shadow)"><rect x="907" y="268" width="171" height="64" rx="12" fill="#282a36" /><rect x="907" y="268" width="171" height="64" rx="12" fill="url(#card-sheen)" opacity="0.55" /><rect x="907" y="268" width="171" height="64" rx="12" fill="none" stroke="rgba(98,114,164,0.32)" stroke-width="1" /><rect x="917" y="282" width="3" height="36" rx="1.5" fill="#8be9fd" /><text x="929" y="295" font-size="14" font-weight="600" fill="#f8f8f2" letter-spacing="-0.1">Commit And Push</text><text x="929" y="315" font-size="10" font-weight="600" fill="#6272a4" letter-spacing="1.2">ACTION</text></g>
<g filter="url(#shadow)"><rect x="459" y="120" width="216" height="64" rx="12" fill="#282a36" /><rect x="459" y="120" width="216" height="64" rx="12" fill="url(#card-sheen)" opacity="0.55" /><rect x="459" y="120" width="216" height="64" rx="12" fill="none" stroke="rgba(98,114,164,0.32)" stroke-width="1" /><rect x="469" y="134" width="3" height="36" rx="1.5" fill="#50fa7b" /><text x="481" y="147" font-size="14" font-weight="600" fill="#f8f8f2" letter-spacing="-0.1">Improve Tree Workflow</text><text x="481" y="167" font-size="10" font-weight="600" fill="#6272a4" letter-spacing="1.2">SEQUENCE</text></g>
</svg>
