<?xml version="1.0" encoding="UTF-8"?>
<svg xmlns="http://www.w3.org/2000/svg" viewBox="0 0 944 536" width="944" height="536" font-family='"Inter","SF Pro Text",-apple-system,BlinkMacSystemFont,"Segoe UI",Roboto,sans-serif'>
<defs><linearGradient id="card-sheen" x1="0" y1="0" x2="0" y2="1"><stop offset="0" stop-color="#44475a" stop-opacity="0.55" /><stop offset="1" stop-color="#282a36" stop-opacity="0" /></linearGradient><filter id="shadow" x="-20%" y="-20%" width="140%" height="160%"><feDropShadow dx="0" dy="3" stdDeviation="4" flood-color="#000000" flood-opacity="0.45" /></filter><filter id="glow" x="-50%" y="-50%" width="200%" height="200%"><feDropShadow dx="0" dy="0" stdDeviation="6" flood-color="#f1fa8c" flood-opacity="0.55" /><feDropShadow dx="0" dy="3" stdDeviation="4" flood-color="#000000" flood-opacity="0.45" /></filter><filter id="ring-glow" x="-30%" y="-30%" width="160%" height="160%"><feDropShadow dx="0" dy="0" stdDeviation="8" flood-color="#ff79c6" flood-opacity="0.9" /><feDropShadow dx="0" dy="0" stdDeviation="3" flood-color="#ff79c6" flood-opacity="0.9" /></filter></defs>
<text x="56" y="80" font-size="20" font-weight="700" fill="#f8f8f2" letter-spacing="-0.4">Hello World</text>
<text x="56" y="102" font-size="11" font-weight="600" fill="#ff79c6" letter-spacing="1.4">BEHAVIOUR TREE</text>
<path d="M 472 184 C 472 226, 137.5 226, 137.5 268" fill="none" stroke="rgba(98,114,164,0.45)" stroke-width="1.5" stroke-linecap="round" />
<path d="M 472 184 C 472 226, 573.5 226, 573.5 268" fill="none" stroke="rgba(98,114,164,0.45)" stroke-width="1.5" stroke-linecap="round" />
<path d="M 573.5 332 C 573.5 374, 348 374, 348 416" fill="none" stroke="rgba(98,114,164,0.45)" stroke-width="1.5" stroke-linecap="round" />
<path d="M 573.5 332 C 573.5 374, 573.5 374, 573.5 416" fill="none" stroke="rgba(98,114,164,0.45)" stroke-width="1.5" stroke-linecap="round" />
<path d="M 573.5 332 C 573.5 374, 799 374, 799 416" fill="none" stroke="rgba(98,114,164,0.45)" stroke-width="1.5" stroke-linecap="round" />
<g filter="url(#shadow)"><rect x="56" y="268" width="163" height="64" rx="12" fill="#282a36" /><rect x="56" y="268" width="163" height="64" rx="12" fill="url(#card-sheen)" opacity="0.55" /><rect x="56" y="268" width="163" height="64" rx="12" fill="none" stroke="rgba(98,114,164,0.32)" stroke-width="1" /><rect x="66" y="282" width="3" height="36" rx="1.5" fill="#8be9fd" /><text x="78" y="295" font-size="14" font-weight="600" fill="#f8f8f2" letter-spacing="-0.1">Determine Time</text><text x="78" y="315" font-size="10" font-weight="600" fill="#6272a4" letter-spacing="1.2">ACTION</text></g>
<g filter="url(#shadow)"><rect x="259" y="416" width="178" height="64" rx="12" fill="#282a36" /><rect x="259" y="416" width="178" height="64" rx="12" fill="url(#card-sheen)" opacity="0.55" /><rect x="259" y="416" width="178" height="64" rx="12" fill="none" stroke="rgba(98,114,164,0.32)" stroke-width="1" /><rect x="269" y="430" width="3" height="36" rx="1.5" fill="#8be9fd" /><text x="281" y="443" font-size="14" font-weight="600" fill="#f8f8f2" letter-spacing="-0.1">Morning Greeting</text><text x="281" y="463" font-size="10" font-weight="600" fill="#6272a4" letter-spacing="1.2">ACTION</text></g>
<g filter="url(#shadow)"><rect x="477" y="416" width="193" height="64" rx="12" fill="#282a36" /><rect x="477" y="416" width="193" height="64" rx="12" fill="url(#card-sheen)" opacity="0.55" /><rect x="477" y="416" width="193" height="64" rx="12" fill="none" stroke="rgba(98,114,164,0.32)" stroke-width="1" /><rect x="487" y="430" width="3" height="36" rx="1.5" fill="#8be9fd" /><text x="499" y="443" font-size="14" font-weight="600" fill="#f8f8f2" letter-spacing="-0.1">Afternoon Greeting</text><text x="499" y="463" font-size="10" font-weight="600" fill="#6272a4" letter-spacing="1.2">ACTION</text></g>
<g filter="url(#shadow)"><rect x="710" y="416" width="178" height="64" rx="12" fill="#282a36" /><rect x="710" y="416" width="178" height="64" rx="12" fill="url(#card-sheen)" opacity="0.55" /><rect x="710" y="416" width="178" height="64" rx="12" fill="none" stroke="rgba(98,114,164,0.32)" stroke-width="1" /><rect x="720" y="430" width="3" height="36" rx="1.5" fill="#8be9fd" /><text x="732" y="443" font-size="14" font-weight="600" fill="#f8f8f2" letter-spacing="-0.1">Evening Greeting</text><text x="732" y="463" font-size="10" font-weight="600" fill="#6272a4" letter-spacing="1.2">ACTION</text></g>
<g filter="url(#shadow)"><rect x="488" y="268" width="171" height="64" rx="12" fill="#282a36" /><rect x="488" y="268" width="171" height="64" rx="12" fill="url(#card-sheen)" opacity="0.55" /><rect x="488" y="268" width="171" height="64" rx="12" fill="none" stroke="rgba(98,114,164,0.32)" stroke-width="1" /><rect x="498" y="282" width="3" height="36" rx="1.5" fill="#bd93f9" /><text x="510" y="295" font-size="14" font-weight="600" fill="#f8f8f2" letter-spacing="-0.1">Choose Greeting</text><text x="510" y="315" font-size="10" font-weight="600" fill="#6272a4" letter-spacing="1.2">SELECTOR</text></g>
<g filter="url(#shadow)"><rect x="401.5" y="120" width="141" height="64" rx="12" fill="#282a36" /><rect x="401.5" y="120" width="141" height="64" rx="12" fill="url(#card-sheen)" opacity="0.55" /><rect x="401.5" y="120" width="141" height="64" rx="12" fill="none" stroke="rgba(98,114,164,0.32)" stroke-width="1" /><rect x="411.5" y="134" width="3" height="36" rx="1.5" fill="#50fa7b" /><text x="423.5" y="147" font-size="14" font-weight="600" fill="#f8f8f2" letter-spacing="-0.1">Hello World</text><text x="423.5" y="167" font-size="10" font-weight="600" fill="#6272a4" letter-spacing="1.2">SEQUENCE</text></g>


</svg>
