<?xml version="1.0" encoding="UTF-8"?>
<svg xmlns="http://www.w3.org/2000/svg" viewBox="0 0 1646 536" width="1646" height="536" font-family='"Inter","SF Pro Text",-apple-system,BlinkMacSystemFont,"Segoe UI",Roboto,sans-serif'>
<defs><linearGradient id="card-sheen" x1="0" y1="0" x2="0" y2="1"><stop offset="0" stop-color="#44475a" stop-opacity="0.55" /><stop offset="1" stop-color="#282a36" stop-opacity="0" /></linearGradient><filter id="shadow" x="-20%" y="-20%" width="140%" height="160%"><feDropShadow dx="0" dy="3" stdDeviation="4" flood-color="#000000" flood-opacity="0.45" /></filter><filter id="glow" x="-50%" y="-50%" width="200%" height="200%"><feDropShadow dx="0" dy="0" stdDeviation="6" flood-color="#f1fa8c" flood-opacity="0.55" /><feDropShadow dx="0" dy="3" stdDeviation="4" flood-color="#000000" flood-opacity="0.45" /></filter></defs>
<text x="56" y="80" font-size="20" font-weight="700" fill="#f8f8f2" letter-spacing="-0.4">Top</text>
<text x="56" y="102" font-size="11" font-weight="600" fill="#ff79c6" letter-spacing="1.4">BEHAVIOUR TREE</text>
<path d="M 823 184 C 823 226, 119 226, 119 268" fill="none" stroke="rgba(98,114,164,0.45)" stroke-width="1.5" stroke-linecap="round" />
<path d="M 823 184 C 823 226, 333.5 226, 333.5 268" fill="none" stroke="rgba(98,114,164,0.45)" stroke-width="1.5" stroke-linecap="round" />
<path d="M 823 184 C 823 226, 559 226, 559 268" fill="none" stroke="rgba(98,114,164,0.45)" stroke-width="1.5" stroke-linecap="round" />
<path d="M 823 184 C 823 226, 920.5 226, 920.5 268" fill="none" stroke="rgba(98,114,164,0.45)" stroke-width="1.5" stroke-linecap="round" />
<path d="M 920.5 332 C 920.5 374, 732 374, 732 416" fill="none" stroke="rgba(98,114,164,0.45)" stroke-width="1.5" stroke-linecap="round" />
<path d="M 920.5 332 C 920.5 374, 894 374, 894 416" fill="none" stroke="rgba(98,114,164,0.45)" stroke-width="1.5" stroke-linecap="round" />
<path d="M 920.5 332 C 920.5 374, 1082.5 374, 1082.5 416" fill="none" stroke="rgba(98,114,164,0.45)" stroke-width="1.5" stroke-linecap="round" />
<path d="M 823 184 C 823 226, 1301 226, 1301 268" fill="none" stroke="rgba(98,114,164,0.45)" stroke-width="1.5" stroke-linecap="round" />
<path d="M 823 184 C 823 226, 1512 226, 1512 268" fill="none" stroke="rgba(98,114,164,0.45)" stroke-width="1.5" stroke-linecap="round" />
<g filter="url(#shadow)"><rect x="56" y="268" width="126" height="64" rx="12" fill="#282a36" /><rect x="56" y="268" width="126" height="64" rx="12" fill="url(#card-sheen)" opacity="0.55" /><rect x="56" y="268" width="126" height="64" rx="12" fill="none" stroke="rgba(98,114,164,0.32)" stroke-width="1" /><rect x="66" y="282" width="3" height="36" rx="1.5" fill="#8be9fd" /><text x="78" y="295" font-size="14" font-weight="600" fill="#f8f8f2" letter-spacing="-0.1">Score SRP</text><text x="78" y="315" font-size="10" font-weight="600" fill="#6272a4" letter-spacing="1.2">ACTION</text></g>
<g filter="url(#shadow)"><rect x="222" y="268" width="223" height="64" rx="12" fill="#282a36" /><rect x="222" y="268" width="223" height="64" rx="12" fill="url(#card-sheen)" opacity="0.55" /><rect x="222" y="268" width="223" height="64" rx="12" fill="none" stroke="rgba(98,114,164,0.32)" stroke-width="1" /><rect x="232" y="282" width="3" height="36" rx="1.5" fill="#8be9fd" /><text x="244" y="295" font-size="14" font-weight="600" fill="#f8f8f2" letter-spacing="-0.1">Snapshot Initial Score</text><text x="244" y="315" font-size="10" font-weight="600" fill="#6272a4" letter-spacing="1.2">ACTION</text></g>
<g filter="url(#shadow)"><rect x="485" y="268" width="148" height="64" rx="12" fill="#282a36" /><rect x="485" y="268" width="148" height="64" rx="12" fill="url(#card-sheen)" opacity="0.55" /><rect x="485" y="268" width="148" height="64" rx="12" fill="none" stroke="rgba(98,114,164,0.32)" stroke-width="1" /><rect x="495" y="282" width="3" height="36" rx="1.5" fill="#8be9fd" /><text x="507" y="295" font-size="14" font-weight="600" fill="#f8f8f2" letter-spacing="-0.1">Await Choice</text><text x="507" y="315" font-size="10" font-weight="600" fill="#6272a4" letter-spacing="1.2">ACTION</text></g>
<g filter="url(#shadow)"><rect x="673" y="416" width="118" height="64" rx="12" fill="#282a36" /><rect x="673" y="416" width="118" height="64" rx="12" fill="url(#card-sheen)" opacity="0.55" /><rect x="673" y="416" width="118" height="64" rx="12" fill="none" stroke="rgba(98,114,164,0.32)" stroke-width="1" /><rect x="683" y="430" width="3" height="36" rx="1.5" fill="#8be9fd" /><text x="695" y="443" font-size="14" font-weight="600" fill="#f8f8f2" letter-spacing="-0.1">Refactor</text><text x="695" y="463" font-size="10" font-weight="600" fill="#6272a4" letter-spacing="1.2">ACTION</text></g>
<g filter="url(#shadow)"><rect x="831" y="416" width="126" height="64" rx="12" fill="#282a36" /><rect x="831" y="416" width="126" height="64" rx="12" fill="url(#card-sheen)" opacity="0.55" /><rect x="831" y="416" width="126" height="64" rx="12" fill="none" stroke="rgba(98,114,164,0.32)" stroke-width="1" /><rect x="841" y="430" width="3" height="36" rx="1.5" fill="#8be9fd" /><text x="853" y="443" font-size="14" font-weight="600" fill="#f8f8f2" letter-spacing="-0.1">Score SRP</text><text x="853" y="463" font-size="10" font-weight="600" fill="#6272a4" letter-spacing="1.2">ACTION</text></g>
<g filter="url(#shadow)"><rect x="997" y="416" width="171" height="64" rx="12" fill="#282a36" /><rect x="997" y="416" width="171" height="64" rx="12" fill="url(#card-sheen)" opacity="0.55" /><rect x="997" y="416" width="171" height="64" rx="12" fill="none" stroke="rgba(98,114,164,0.32)" stroke-width="1" /><rect x="1007" y="430" width="3" height="36" rx="1.5" fill="#8be9fd" /><text x="1019" y="443" font-size="14" font-weight="600" fill="#f8f8f2" letter-spacing="-0.1">Verify Resolved</text><text x="1019" y="463" font-size="10" font-weight="600" fill="#6272a4" letter-spacing="1.2">ACTION</text></g>
<g filter="url(#shadow)"><rect x="842.5" y="268" width="156" height="64" rx="12" fill="#282a36" /><rect x="842.5" y="268" width="156" height="64" rx="12" fill="url(#card-sheen)" opacity="0.55" /><rect x="842.5" y="268" width="156" height="64" rx="12" fill="none" stroke="rgba(98,114,164,0.32)" stroke-width="1" /><rect x="852.5" y="282" width="3" height="36" rx="1.5" fill="#50fa7b" /><text x="864.5" y="295" font-size="14" font-weight="600" fill="#f8f8f2" letter-spacing="-0.1">Refactor Loop</text><text x="864.5" y="315" font-size="10" font-weight="600" fill="#6272a4" letter-spacing="1.2">SEQUENCE</text></g>
<g filter="url(#shadow)"><rect x="1208" y="268" width="186" height="64" rx="12" fill="#282a36" /><rect x="1208" y="268" width="186" height="64" rx="12" fill="url(#card-sheen)" opacity="0.55" /><rect x="1208" y="268" width="186" height="64" rx="12" fill="none" stroke="rgba(98,114,164,0.32)" stroke-width="1" /><rect x="1218" y="282" width="3" height="36" rx="1.5" fill="#8be9fd" /><text x="1230" y="295" font-size="14" font-weight="600" fill="#f8f8f2" letter-spacing="-0.1">Final Code Review</text><text x="1230" y="315" font-size="10" font-weight="600" fill="#6272a4" letter-spacing="1.2">ACTION</text></g>
<g filter="url(#shadow)"><rect x="1434" y="268" width="156" height="64" rx="12" fill="#282a36" /><rect x="1434" y="268" width="156" height="64" rx="12" fill="url(#card-sheen)" opacity="0.55" /><rect x="1434" y="268" width="156" height="64" rx="12" fill="none" stroke="rgba(98,114,164,0.32)" stroke-width="1" /><rect x="1444" y="282" width="3" height="36" rx="1.5" fill="#8be9fd" /><text x="1456" y="295" font-size="14" font-weight="600" fill="#f8f8f2" letter-spacing="-0.1">Change Report</text><text x="1456" y="315" font-size="10" font-weight="600" fill="#6272a4" letter-spacing="1.2">ACTION</text></g>
<g filter="url(#shadow)"><rect x="763.5" y="120" width="119" height="64" rx="12" fill="#282a36" /><rect x="763.5" y="120" width="119" height="64" rx="12" fill="url(#card-sheen)" opacity="0.55" /><rect x="763.5" y="120" width="119" height="64" rx="12" fill="none" stroke="rgba(98,114,164,0.32)" stroke-width="1" /><rect x="773.5" y="134" width="3" height="36" rx="1.5" fill="#50fa7b" /><text x="785.5" y="147" font-size="14" font-weight="600" fill="#f8f8f2" letter-spacing="-0.1">Top</text><text x="785.5" y="167" font-size="10" font-weight="600" fill="#6272a4" letter-spacing="1.2">SEQUENCE</text></g>
</svg>
