<?xml version="1.0" encoding="UTF-8"?>
<svg xmlns="http://www.w3.org/2000/svg" viewBox="0 0 1337 536" width="1337" height="536" font-family='"Inter","SF Pro Text",-apple-system,BlinkMacSystemFont,"Segoe UI",Roboto,sans-serif'>
<defs><linearGradient id="card-sheen" x1="0" y1="0" x2="0" y2="1"><stop offset="0" stop-color="#44475a" stop-opacity="0.55" /><stop offset="1" stop-color="#282a36" stop-opacity="0" /></linearGradient><filter id="shadow" x="-20%" y="-20%" width="140%" height="160%"><feDropShadow dx="0" dy="3" stdDeviation="4" flood-color="#000000" flood-opacity="0.45" /></filter><filter id="glow" x="-50%" y="-50%" width="200%" height="200%"><feDropShadow dx="0" dy="0" stdDeviation="6" flood-color="#f1fa8c" flood-opacity="0.55" /><feDropShadow dx="0" dy="3" stdDeviation="4" flood-color="#000000" flood-opacity="0.45" /></filter></defs>
<text x="56" y="80" font-size="20" font-weight="700" fill="#f8f8f2" letter-spacing="-0.4">Refine Plan Workflow</text>
<text x="56" y="102" font-size="11" font-weight="600" fill="#ff79c6" letter-spacing="1.4">BEHAVIOUR TREE</text>
<path d="M 668.5 184 C 668.5 226, 149 226, 149 268" fill="none" stroke="rgba(98,114,164,0.45)" stroke-width="1.5" stroke-linecap="round" />
<path d="M 668.5 184 C 668.5 226, 352.5 226, 352.5 268" fill="none" stroke="rgba(98,114,164,0.45)" stroke-width="1.5" stroke-linecap="round" />
<path d="M 668.5 184 C 668.5 226, 544.5 226, 544.5 268" fill="none" stroke="rgba(98,114,164,0.45)" stroke-width="1.5" stroke-linecap="round" />
<path d="M 668.5 184 C 668.5 226, 729 226, 729 268" fill="none" stroke="rgba(98,114,164,0.45)" stroke-width="1.5" stroke-linecap="round" />
<path d="M 668.5 184 C 668.5 226, 1056.5 226, 1056.5 268" fill="none" stroke="rgba(98,114,164,0.45)" stroke-width="1.5" stroke-linecap="round" />
<path d="M 1056.5 332 C 1056.5 374, 928.5 374, 928.5 416" fill="none" stroke="rgba(98,114,164,0.45)" stroke-width="1.5" stroke-linecap="round" />
<path d="M 1056.5 332 C 1056.5 374, 1173 374, 1173 416" fill="none" stroke="rgba(98,114,164,0.45)" stroke-width="1.5" stroke-linecap="round" />
<g filter="url(#shadow)"><rect x="56" y="268" width="186" height="64" rx="12" fill="#282a36" /><rect x="56" y="268" width="186" height="64" rx="12" fill="url(#card-sheen)" opacity="0.55" /><rect x="56" y="268" width="186" height="64" rx="12" fill="none" stroke="rgba(98,114,164,0.32)" stroke-width="1" /><rect x="66" y="282" width="3" height="36" rx="1.5" fill="#8be9fd" /><text x="78" y="295" font-size="14" font-weight="600" fill="#f8f8f2" letter-spacing="-0.1">Understand Intent</text><text x="78" y="315" font-size="10" font-weight="600" fill="#6272a4" letter-spacing="1.2">ACTION</text></g>
<g filter="url(#shadow)"><rect x="282" y="268" width="141" height="64" rx="12" fill="#282a36" /><rect x="282" y="268" width="141" height="64" rx="12" fill="url(#card-sheen)" opacity="0.55" /><rect x="282" y="268" width="141" height="64" rx="12" fill="none" stroke="rgba(98,114,164,0.32)" stroke-width="1" /><rect x="292" y="282" width="3" height="36" rx="1.5" fill="#8be9fd" /><text x="304" y="295" font-size="14" font-weight="600" fill="#f8f8f2" letter-spacing="-0.1">Write Draft</text><text x="304" y="315" font-size="10" font-weight="600" fill="#6272a4" letter-spacing="1.2">ACTION</text></g>
<g filter="url(#shadow)"><rect x="463" y="268" width="163" height="64" rx="12" fill="#282a36" /><rect x="463" y="268" width="163" height="64" rx="12" fill="url(#card-sheen)" opacity="0.55" /><rect x="463" y="268" width="163" height="64" rx="12" fill="none" stroke="rgba(98,114,164,0.32)" stroke-width="1" /><rect x="473" y="282" width="3" height="36" rx="1.5" fill="#8be9fd" /><text x="485" y="295" font-size="14" font-weight="600" fill="#f8f8f2" letter-spacing="-0.1">Critique Draft</text><text x="485" y="315" font-size="10" font-weight="600" fill="#6272a4" letter-spacing="1.2">ACTION</text></g>
<g filter="url(#shadow)"><rect x="666" y="268" width="126" height="64" rx="12" fill="#282a36" /><rect x="666" y="268" width="126" height="64" rx="12" fill="url(#card-sheen)" opacity="0.55" /><rect x="666" y="268" width="126" height="64" rx="12" fill="none" stroke="rgba(98,114,164,0.32)" stroke-width="1" /><rect x="676" y="282" width="3" height="36" rx="1.5" fill="#8be9fd" /><text x="688" y="295" font-size="14" font-weight="600" fill="#f8f8f2" letter-spacing="-0.1">Save Plan</text><text x="688" y="315" font-size="10" font-weight="600" fill="#6272a4" letter-spacing="1.2">ACTION</text></g>
<g filter="url(#shadow)"><rect x="832" y="416" width="193" height="64" rx="12" fill="#282a36" /><rect x="832" y="416" width="193" height="64" rx="12" fill="url(#card-sheen)" opacity="0.55" /><rect x="832" y="416" width="193" height="64" rx="12" fill="none" stroke="rgba(98,114,164,0.32)" stroke-width="1" /><rect x="842" y="430" width="3" height="36" rx="1.5" fill="#8be9fd" /><text x="854" y="443" font-size="14" font-weight="600" fill="#f8f8f2" letter-spacing="-0.1">Approve In Session</text><text x="854" y="463" font-size="10" font-weight="600" fill="#6272a4" letter-spacing="1.2">ACTION</text></g>
<g filter="url(#shadow)"><rect x="1065" y="416" width="216" height="64" rx="12" fill="#282a36" /><rect x="1065" y="416" width="216" height="64" rx="12" fill="url(#card-sheen)" opacity="0.55" /><rect x="1065" y="416" width="216" height="64" rx="12" fill="none" stroke="rgba(98,114,164,0.32)" stroke-width="1" /><rect x="1075" y="430" width="3" height="36" rx="1.5" fill="#8be9fd" /><text x="1087" y="443" font-size="14" font-weight="600" fill="#f8f8f2" letter-spacing="-0.1">Open MR For Codeowner</text><text x="1087" y="463" font-size="10" font-weight="600" fill="#6272a4" letter-spacing="1.2">ACTION</text></g>
<g filter="url(#shadow)"><rect x="960" y="268" width="193" height="64" rx="12" fill="#282a36" /><rect x="960" y="268" width="193" height="64" rx="12" fill="url(#card-sheen)" opacity="0.55" /><rect x="960" y="268" width="193" height="64" rx="12" fill="none" stroke="rgba(98,114,164,0.32)" stroke-width="1" /><rect x="970" y="282" width="3" height="36" rx="1.5" fill="#bd93f9" /><text x="982" y="295" font-size="14" font-weight="600" fill="#f8f8f2" letter-spacing="-0.1">Codeowner Approval</text><text x="982" y="315" font-size="10" font-weight="600" fill="#6272a4" letter-spacing="1.2">SELECTOR</text></g>
<g filter="url(#shadow)"><rect x="564.5" y="120" width="208" height="64" rx="12" fill="#282a36" /><rect x="564.5" y="120" width="208" height="64" rx="12" fill="url(#card-sheen)" opacity="0.55" /><rect x="564.5" y="120" width="208" height="64" rx="12" fill="none" stroke="rgba(98,114,164,0.32)" stroke-width="1" /><rect x="574.5" y="134" width="3" height="36" rx="1.5" fill="#50fa7b" /><text x="586.5" y="147" font-size="14" font-weight="600" fill="#f8f8f2" letter-spacing="-0.1">Refine Plan Workflow</text><text x="586.5" y="167" font-size="10" font-weight="600" fill="#6272a4" letter-spacing="1.2">SEQUENCE</text></g>
</svg>
