<?xml version="1.0" encoding="UTF-8"?>
<svg xmlns="http://www.w3.org/2000/svg" viewBox="0 0 1782 684" width="1782" height="684" font-family='"Inter","SF Pro Text",-apple-system,BlinkMacSystemFont,"Segoe UI",Roboto,sans-serif'>
<defs><linearGradient id="card-sheen" x1="0" y1="0" x2="0" y2="1"><stop offset="0" stop-color="#44475a" stop-opacity="0.55" /><stop offset="1" stop-color="#282a36" stop-opacity="0" /></linearGradient><filter id="shadow" x="-20%" y="-20%" width="140%" height="160%"><feDropShadow dx="0" dy="3" stdDeviation="4" flood-color="#000000" flood-opacity="0.45" /></filter><filter id="glow" x="-50%" y="-50%" width="200%" height="200%"><feDropShadow dx="0" dy="0" stdDeviation="6" flood-color="#f1fa8c" flood-opacity="0.55" /><feDropShadow dx="0" dy="3" stdDeviation="4" flood-color="#000000" flood-opacity="0.45" /></filter></defs>
<text x="56" y="80" font-size="20" font-weight="700" fill="#f8f8f2" letter-spacing="-0.4">Technical Writer Workflow</text>
<text x="56" y="102" font-size="11" font-weight="600" fill="#ff79c6" letter-spacing="1.4">BEHAVIOUR TREE</text>
<path d="M 891 184 C 891 226, 371 226, 371 268" fill="none" stroke="rgba(98,114,164,0.45)" stroke-width="1.5" stroke-linecap="round" />
<path d="M 371 332 C 371 374, 141.5 374, 141.5 416" fill="none" stroke="rgba(98,114,164,0.45)" stroke-width="1.5" stroke-linecap="round" />
<path d="M 371 332 C 371 374, 476.5 374, 476.5 416" fill="none" stroke="rgba(98,114,164,0.45)" stroke-width="1.5" stroke-linecap="round" />
<path d="M 476.5 480 C 476.5 522, 356 522, 356 564" fill="none" stroke="rgba(98,114,164,0.45)" stroke-width="1.5" stroke-linecap="round" />
<path d="M 476.5 480 C 476.5 522, 585.5 522, 585.5 564" fill="none" stroke="rgba(98,114,164,0.45)" stroke-width="1.5" stroke-linecap="round" />
<path d="M 891 184 C 891 226, 804 226, 804 268" fill="none" stroke="rgba(98,114,164,0.45)" stroke-width="1.5" stroke-linecap="round" />
<path d="M 891 184 C 891 226, 1113 226, 1113 268" fill="none" stroke="rgba(98,114,164,0.45)" stroke-width="1.5" stroke-linecap="round" />
<path d="M 1113 332 C 1113 374, 1000 374, 1000 416" fill="none" stroke="rgba(98,114,164,0.45)" stroke-width="1.5" stroke-linecap="round" />
<path d="M 1113 332 C 1113 374, 1211 374, 1211 416" fill="none" stroke="rgba(98,114,164,0.45)" stroke-width="1.5" stroke-linecap="round" />
<path d="M 891 184 C 891 226, 1535 226, 1535 268" fill="none" stroke="rgba(98,114,164,0.45)" stroke-width="1.5" stroke-linecap="round" />
<path d="M 1535 332 C 1535 374, 1444.5 374, 1444.5 416" fill="none" stroke="rgba(98,114,164,0.45)" stroke-width="1.5" stroke-linecap="round" />
<path d="M 1535 332 C 1535 374, 1655.5 374, 1655.5 416" fill="none" stroke="rgba(98,114,164,0.45)" stroke-width="1.5" stroke-linecap="round" />
<g filter="url(#shadow)"><rect x="56" y="416" width="171" height="64" rx="12" fill="#282a36" /><rect x="56" y="416" width="171" height="64" rx="12" fill="url(#card-sheen)" opacity="0.55" /><rect x="56" y="416" width="171" height="64" rx="12" fill="none" stroke="rgba(98,114,164,0.32)" stroke-width="1" /><rect x="66" y="430" width="3" height="36" rx="1.5" fill="#8be9fd" /><text x="78" y="443" font-size="14" font-weight="600" fill="#f8f8f2" letter-spacing="-0.1">Load Styleguide</text><text x="78" y="463" font-size="10" font-weight="600" fill="#6272a4" letter-spacing="1.2">ACTION</text></g>
<g filter="url(#shadow)"><rect x="267" y="564" width="178" height="64" rx="12" fill="#282a36" /><rect x="267" y="564" width="178" height="64" rx="12" fill="url(#card-sheen)" opacity="0.55" /><rect x="267" y="564" width="178" height="64" rx="12" fill="none" stroke="rgba(98,114,164,0.32)" stroke-width="1" /><rect x="277" y="578" width="3" height="36" rx="1.5" fill="#8be9fd" /><text x="289" y="591" font-size="14" font-weight="600" fill="#f8f8f2" letter-spacing="-0.1">Draft Styleguide</text><text x="289" y="611" font-size="10" font-weight="600" fill="#6272a4" letter-spacing="1.2">ACTION</text></g>
<g filter="url(#shadow)"><rect x="485" y="564" width="201" height="64" rx="12" fill="#282a36" /><rect x="485" y="564" width="201" height="64" rx="12" fill="url(#card-sheen)" opacity="0.55" /><rect x="485" y="564" width="201" height="64" rx="12" fill="none" stroke="rgba(98,114,164,0.32)" stroke-width="1" /><rect x="495" y="578" width="3" height="36" rx="1.5" fill="#8be9fd" /><text x="507" y="591" font-size="14" font-weight="600" fill="#f8f8f2" letter-spacing="-0.1">Human Approval Gate</text><text x="507" y="611" font-size="10" font-weight="600" fill="#6272a4" letter-spacing="1.2">ACTION</text></g>
<g filter="url(#shadow)"><rect x="372.5" y="416" width="208" height="64" rx="12" fill="#282a36" /><rect x="372.5" y="416" width="208" height="64" rx="12" fill="url(#card-sheen)" opacity="0.55" /><rect x="372.5" y="416" width="208" height="64" rx="12" fill="none" stroke="rgba(98,114,164,0.32)" stroke-width="1" /><rect x="382.5" y="430" width="3" height="36" rx="1.5" fill="#50fa7b" /><text x="394.5" y="443" font-size="14" font-weight="600" fill="#f8f8f2" letter-spacing="-0.1">Bootstrap Styleguide</text><text x="394.5" y="463" font-size="10" font-weight="600" fill="#6272a4" letter-spacing="1.2">SEQUENCE</text></g>
<g filter="url(#shadow)"><rect x="274.5" y="268" width="193" height="64" rx="12" fill="#282a36" /><rect x="274.5" y="268" width="193" height="64" rx="12" fill="url(#card-sheen)" opacity="0.55" /><rect x="274.5" y="268" width="193" height="64" rx="12" fill="none" stroke="rgba(98,114,164,0.32)" stroke-width="1" /><rect x="284.5" y="282" width="3" height="36" rx="1.5" fill="#bd93f9" /><text x="296.5" y="295" font-size="14" font-weight="600" fill="#f8f8f2" letter-spacing="-0.1">Resolve Styleguide</text><text x="296.5" y="315" font-size="10" font-weight="600" fill="#6272a4" letter-spacing="1.2">SELECTOR</text></g>
<g filter="url(#shadow)"><rect x="726" y="268" width="156" height="64" rx="12" fill="#282a36" /><rect x="726" y="268" width="156" height="64" rx="12" fill="url(#card-sheen)" opacity="0.55" /><rect x="726" y="268" width="156" height="64" rx="12" fill="none" stroke="rgba(98,114,164,0.32)" stroke-width="1" /><rect x="736" y="282" width="3" height="36" rx="1.5" fill="#8be9fd" /><text x="748" y="295" font-size="14" font-weight="600" fill="#f8f8f2" letter-spacing="-0.1">Assess Intent</text><text x="748" y="315" font-size="10" font-weight="600" fill="#6272a4" letter-spacing="1.2">ACTION</text></g>
<g filter="url(#shadow)"><rect x="922" y="416" width="156" height="64" rx="12" fill="#282a36" /><rect x="922" y="416" width="156" height="64" rx="12" fill="url(#card-sheen)" opacity="0.55" /><rect x="922" y="416" width="156" height="64" rx="12" fill="none" stroke="rgba(98,114,164,0.32)" stroke-width="1" /><rect x="932" y="430" width="3" height="36" rx="1.5" fill="#8be9fd" /><text x="944" y="443" font-size="14" font-weight="600" fill="#f8f8f2" letter-spacing="-0.1">Map Placement</text><text x="944" y="463" font-size="10" font-weight="600" fill="#6272a4" letter-spacing="1.2">ACTION</text></g>
<g filter="url(#shadow)"><rect x="1118" y="416" width="186" height="64" rx="12" fill="#282a36" /><rect x="1118" y="416" width="186" height="64" rx="12" fill="url(#card-sheen)" opacity="0.55" /><rect x="1118" y="416" width="186" height="64" rx="12" fill="none" stroke="rgba(98,114,164,0.32)" stroke-width="1" /><rect x="1128" y="430" width="3" height="36" rx="1.5" fill="#8be9fd" /><text x="1140" y="443" font-size="14" font-weight="600" fill="#f8f8f2" letter-spacing="-0.1">Resolve Structure</text><text x="1140" y="463" font-size="10" font-weight="600" fill="#6272a4" letter-spacing="1.2">ACTION</text></g>
<g filter="url(#shadow)"><rect x="1009" y="268" width="208" height="64" rx="12" fill="#282a36" /><rect x="1009" y="268" width="208" height="64" rx="12" fill="url(#card-sheen)" opacity="0.55" /><rect x="1009" y="268" width="208" height="64" rx="12" fill="none" stroke="rgba(98,114,164,0.32)" stroke-width="1" /><rect x="1019" y="282" width="3" height="36" rx="1.5" fill="#bd93f9" /><text x="1031" y="295" font-size="14" font-weight="600" fill="#f8f8f2" letter-spacing="-0.1">Survey Existing Docs</text><text x="1031" y="315" font-size="10" font-weight="600" fill="#6272a4" letter-spacing="1.2">SELECTOR</text></g>
<g filter="url(#shadow)"><rect x="1344" y="416" width="201" height="64" rx="12" fill="#282a36" /><rect x="1344" y="416" width="201" height="64" rx="12" fill="url(#card-sheen)" opacity="0.55" /><rect x="1344" y="416" width="201" height="64" rx="12" fill="none" stroke="rgba(98,114,164,0.32)" stroke-width="1" /><rect x="1354" y="430" width="3" height="36" rx="1.5" fill="#8be9fd" /><text x="1366" y="443" font-size="14" font-weight="600" fill="#f8f8f2" letter-spacing="-0.1">Write Documentation</text><text x="1366" y="463" font-size="10" font-weight="600" fill="#6272a4" letter-spacing="1.2">ACTION</text></g>
<g filter="url(#shadow)"><rect x="1585" y="416" width="141" height="64" rx="12" fill="#282a36" /><rect x="1585" y="416" width="141" height="64" rx="12" fill="url(#card-sheen)" opacity="0.55" /><rect x="1585" y="416" width="141" height="64" rx="12" fill="none" stroke="rgba(98,114,164,0.32)" stroke-width="1" /><rect x="1595" y="430" width="3" height="36" rx="1.5" fill="#8be9fd" /><text x="1607" y="443" font-size="14" font-weight="600" fill="#f8f8f2" letter-spacing="-0.1">Review Gate</text><text x="1607" y="463" font-size="10" font-weight="600" fill="#6272a4" letter-spacing="1.2">ACTION</text></g>
<g filter="url(#shadow)"><rect x="1446" y="268" width="178" height="64" rx="12" fill="#282a36" /><rect x="1446" y="268" width="178" height="64" rx="12" fill="url(#card-sheen)" opacity="0.55" /><rect x="1446" y="268" width="178" height="64" rx="12" fill="none" stroke="rgba(98,114,164,0.32)" stroke-width="1" /><rect x="1456" y="282" width="3" height="36" rx="1.5" fill="#50fa7b" /><text x="1468" y="295" font-size="14" font-weight="600" fill="#f8f8f2" letter-spacing="-0.1">Write And Review</text><text x="1468" y="315" font-size="10" font-weight="600" fill="#6272a4" letter-spacing="1.2">SEQUENCE</text></g>
<g filter="url(#shadow)"><rect x="768" y="120" width="246" height="64" rx="12" fill="#282a36" /><rect x="768" y="120" width="246" height="64" rx="12" fill="url(#card-sheen)" opacity="0.55" /><rect x="768" y="120" width="246" height="64" rx="12" fill="none" stroke="rgba(98,114,164,0.32)" stroke-width="1" /><rect x="778" y="134" width="3" height="36" rx="1.5" fill="#50fa7b" /><text x="790" y="147" font-size="14" font-weight="600" fill="#f8f8f2" letter-spacing="-0.1">Technical Writer Workflow</text><text x="790" y="167" font-size="10" font-weight="600" fill="#6272a4" letter-spacing="1.2">SEQUENCE</text></g>
</svg>
