<?xml version="1.0" encoding="UTF-8"?>
<svg xmlns="http://www.w3.org/2000/svg" viewBox="0 0 1058 388" width="1058" height="388" font-family='"Inter","SF Pro Text",-apple-system,BlinkMacSystemFont,"Segoe UI",Roboto,sans-serif'>
<defs><linearGradient id="card-sheen" x1="0" y1="0" x2="0" y2="1"><stop offset="0" stop-color="#44475a" stop-opacity="0.55" /><stop offset="1" stop-color="#282a36" stop-opacity="0" /></linearGradient><filter id="shadow" x="-20%" y="-20%" width="140%" height="160%"><feDropShadow dx="0" dy="3" stdDeviation="4" flood-color="#000000" flood-opacity="0.45" /></filter><filter id="glow" x="-50%" y="-50%" width="200%" height="200%"><feDropShadow dx="0" dy="0" stdDeviation="6" flood-color="#f1fa8c" flood-opacity="0.55" /><feDropShadow dx="0" dy="3" stdDeviation="4" flood-color="#000000" flood-opacity="0.45" /></filter></defs>
<text x="56" y="80" font-size="20" font-weight="700" fill="#f8f8f2" letter-spacing="-0.4">Test Runner</text>
<text x="56" y="102" font-size="11" font-weight="600" fill="#ff79c6" letter-spacing="1.4">BEHAVIOUR TREE</text>
<path d="M 529 184 C 529 226, 119 226, 119 268" fill="none" stroke="rgba(98,114,164,0.45)" stroke-width="1.5" stroke-linecap="round" />
<path d="M 529 184 C 529 226, 303.5 226, 303.5 268" fill="none" stroke="rgba(98,114,164,0.45)" stroke-width="1.5" stroke-linecap="round" />
<path d="M 529 184 C 529 226, 503 226, 503 268" fill="none" stroke="rgba(98,114,164,0.45)" stroke-width="1.5" stroke-linecap="round" />
<path d="M 529 184 C 529 226, 717.5 226, 717.5 268" fill="none" stroke="rgba(98,114,164,0.45)" stroke-width="1.5" stroke-linecap="round" />
<path d="M 529 184 C 529 226, 928 226, 928 268" fill="none" stroke="rgba(98,114,164,0.45)" stroke-width="1.5" stroke-linecap="round" />
<g filter="url(#shadow)"><rect x="56" y="268" width="126" height="64" rx="12" fill="#282a36" /><rect x="56" y="268" width="126" height="64" rx="12" fill="url(#card-sheen)" opacity="0.55" /><rect x="56" y="268" width="126" height="64" rx="12" fill="none" stroke="rgba(98,114,164,0.32)" stroke-width="1" /><rect x="66" y="282" width="3" height="36" rx="1.5" fill="#8be9fd" /><text x="78" y="295" font-size="14" font-weight="600" fill="#f8f8f2" letter-spacing="-0.1">Load Spec</text><text x="78" y="315" font-size="10" font-weight="600" fill="#6272a4" letter-spacing="1.2">ACTION</text></g>
<g filter="url(#shadow)"><rect x="222" y="268" width="163" height="64" rx="12" fill="#282a36" /><rect x="222" y="268" width="163" height="64" rx="12" fill="url(#card-sheen)" opacity="0.55" /><rect x="222" y="268" width="163" height="64" rx="12" fill="none" stroke="rgba(98,114,164,0.32)" stroke-width="1" /><rect x="232" y="282" width="3" height="36" rx="1.5" fill="#8be9fd" /><text x="244" y="295" font-size="14" font-weight="600" fill="#f8f8f2" letter-spacing="-0.1">Drive Workflow</text><text x="244" y="315" font-size="10" font-weight="600" fill="#6272a4" letter-spacing="1.2">ACTION</text></g>
<g filter="url(#shadow)"><rect x="425" y="268" width="156" height="64" rx="12" fill="#282a36" /><rect x="425" y="268" width="156" height="64" rx="12" fill="url(#card-sheen)" opacity="0.55" /><rect x="425" y="268" width="156" height="64" rx="12" fill="none" stroke="rgba(98,114,164,0.32)" stroke-width="1" /><rect x="435" y="282" width="3" height="36" rx="1.5" fill="#8be9fd" /><text x="447" y="295" font-size="14" font-weight="600" fill="#f8f8f2" letter-spacing="-0.1">Capture Trace</text><text x="447" y="315" font-size="10" font-weight="600" fill="#6272a4" letter-spacing="1.2">ACTION</text></g>
<g filter="url(#shadow)"><rect x="621" y="268" width="193" height="64" rx="12" fill="#282a36" /><rect x="621" y="268" width="193" height="64" rx="12" fill="url(#card-sheen)" opacity="0.55" /><rect x="621" y="268" width="193" height="64" rx="12" fill="none" stroke="rgba(98,114,164,0.32)" stroke-width="1" /><rect x="631" y="282" width="3" height="36" rx="1.5" fill="#8be9fd" /><text x="643" y="295" font-size="14" font-weight="600" fill="#f8f8f2" letter-spacing="-0.1">Compare Assertions</text><text x="643" y="315" font-size="10" font-weight="600" fill="#6272a4" letter-spacing="1.2">ACTION</text></g>
<g filter="url(#shadow)"><rect x="854" y="268" width="148" height="64" rx="12" fill="#282a36" /><rect x="854" y="268" width="148" height="64" rx="12" fill="url(#card-sheen)" opacity="0.55" /><rect x="854" y="268" width="148" height="64" rx="12" fill="none" stroke="rgba(98,114,164,0.32)" stroke-width="1" /><rect x="864" y="282" width="3" height="36" rx="1.5" fill="#8be9fd" /><text x="876" y="295" font-size="14" font-weight="600" fill="#f8f8f2" letter-spacing="-0.1">Write Report</text><text x="876" y="315" font-size="10" font-weight="600" fill="#6272a4" letter-spacing="1.2">ACTION</text></g>
<g filter="url(#shadow)"><rect x="458.5" y="120" width="141" height="64" rx="12" fill="#282a36" /><rect x="458.5" y="120" width="141" height="64" rx="12" fill="url(#card-sheen)" opacity="0.55" /><rect x="458.5" y="120" width="141" height="64" rx="12" fill="none" stroke="rgba(98,114,164,0.32)" stroke-width="1" /><rect x="468.5" y="134" width="3" height="36" rx="1.5" fill="#50fa7b" /><text x="480.5" y="147" font-size="14" font-weight="600" fill="#f8f8f2" letter-spacing="-0.1">Test Runner</text><text x="480.5" y="167" font-size="10" font-weight="600" fill="#6272a4" letter-spacing="1.2">SEQUENCE</text></g>
</svg>
